<?xml version="1.0" encoding="UTF-8"?>
<svg width="133px" height="115px" viewBox="0 0 133 115" version="1.1" xmlns="http://www.w3.org/2000/svg" xmlns:xlink="http://www.w3.org/1999/xlink">
    <title>icon-espai-comfortable</title>
    <g id="Page-1" stroke="none" stroke-width="1" fill="none" fill-rule="evenodd">
        <g id="icon-espai-comfortable" transform="translate(0.800000, 0.000000)">
            <rect id="Rectangle" fill="#4EAACE" fill-rule="nonzero" x="0" y="0.1" width="63" height="63"></rect>
            <g id="Layer_5" transform="translate(22.200000, 7.000000)" stroke="#004F80" stroke-width="1.5">
                <g id="Group">
                    <path d="M107.436735,56.1204082 C107.436735,57.1394558 107,58.0857143 106.344898,58.7408163 C105.689796,59.3959184 104.743537,59.8326531 103.72449,59.8326531 L73.9537415,59.8326531 C71.9156463,59.8326531 70.2414966,58.1585034 70.2414966,56.1204082 C70.2414966,55.1013605 70.6782313,54.155102 71.3333333,53.5 C71.9884354,52.844898 72.9346939,52.4081633 73.9537415,52.4081633 L103.72449,52.4081633 C105.762585,52.3353741 107.436735,54.0095238 107.436735,56.1204082 Z" id="Path"></path>
                    <line x1="45.2020408" y1="68.2034014" x2="45.2020408" y2="73.3714286" id="Path"></line>
                    <line x1="53.2088435" y1="67.6210884" x2="53.2088435" y2="72.7891156" id="Path"></line>
                    <path d="M29.2612245,87.0557823 C26.9319728,87.7108844 24.4571429,87.1285714 22.7102041,85.6 C23.8748299,86.5462585 25.3306122,87.0557823 26.9319728,87.0557823 L29.2612245,87.0557823 Z" id="Path"></path>
                    <path d="M22.7102041,85.6 C21.6183673,84.7265306 20.744898,83.4891156 20.3809524,82.0333333 L21.2544218,83.707483 C21.6911565,84.4353741 22.2006803,85.0176871 22.7102041,85.6 Z" id="Path"></path>
                    <path d="M82.1061224,74.4632653 L81.4510204,74.0993197 C80.6503401,73.662585 79.7768707,73.4442177 78.9034014,73.3714286 C80.0680272,73.4442177 81.1598639,73.8809524 82.1061224,74.4632653 Z" id="Path"></path>
                    <path d="M105.107483,94.3346939 C104.088435,96.2272109 102.341497,97.537415 100.303401,97.9013605 C98.847619,98.192517 97.2462585,97.9741497 95.8632653,97.2462585 L95.3537415,96.955102 L76.5741497,87.0557823 L27.0047619,87.0557823 C25.4034014,87.0557823 23.947619,86.4734694 22.7829932,85.6 C22.7829932,85.6 22.7829932,85.6 22.7829932,85.6 C22.2006803,85.0904762 21.6911565,84.4353741 21.3272109,83.707483 L20.4537415,82.0333333 L1.3829932,46.2210884 C-0.363945578,42.8727891 0.873469388,38.7238095 4.22176871,36.9768707 C5.24081633,36.4673469 6.33265306,36.1761905 7.4244898,36.1761905 C9.89931973,36.1761905 12.2285714,37.4863946 13.4659864,39.8156463 L31.3721088,73.4442177 L78.3938776,73.4442177 C78.4666667,73.4442177 78.6122449,73.4442177 78.685034,73.4442177 C78.7578231,73.4442177 78.8306122,73.4442177 78.9034014,73.4442177 C79.7768707,73.5170068 80.6503401,73.7353741 81.4510204,74.1721088 L82.1061224,74.5360544 L95.3537415,81.5238095 L100.303401,84.1442177 L102.195918,85.1632653 C105.544218,86.837415 106.854422,90.9863946 105.107483,94.3346939 Z" id="Path"></path>
                    <path d="M78.6122449,73.3714286 C78.5394558,73.3714286 78.3938776,73.3714286 78.3210884,73.3714286 L78.029932,73.3714286 C78.1027211,73.3714286 78.1755102,73.3714286 78.2482993,73.3714286 C78.3938776,73.3714286 78.5394558,73.3714286 78.6122449,73.3714286 Z" id="Path"></path>
                    <path d="M37.0496599,87.0557823 L31.3721088,102.85102 C30.7897959,104.452381 31.9544218,106.126531 33.7013605,106.126531 L63.6904762,106.126531 C65.437415,106.126531 66.6020408,104.379592 66.0197279,102.778231 L60.1238095,86.9829932 L37.0496599,86.9829932 L37.0496599,87.0557823 Z" id="Path"></path>
                    <path d="M100.303401,26.3496599 L100.303401,52.4081633 L95.3537415,52.4081633 L95.3537415,26.6408163 C95.2809524,26.5680272 95.1353741,26.4952381 95.062585,26.422449 L73.3714286,4.73129252 C72.4251701,3.78503401 72.4251701,2.18367347 73.3714286,1.23741497 C73.8809524,0.727891156 74.4632653,0.50952381 75.1183673,0.50952381 C75.7734694,0.50952381 76.3557823,0.727891156 76.8653061,1.23741497 L95.5721088,19.9442177 C95.644898,20.0170068 96.7367347,21.1088435 97.1734694,21.5455782 C97.3190476,21.6911565 97.4646259,21.8367347 97.6102041,21.9823129 L99.6482993,24.529932 C100.085034,25.0394558 100.303401,25.6217687 100.303401,26.3496599 Z" id="Path"></path>
                    <polygon id="Path" points="100.303401 59.8326531 100.303401 84.0714286 95.3537415 81.4510204 95.3537415 59.8326531"></polygon>
                    <path d="M100.303401,97.8285714 L100.303401,105.398639 C100.303401,106.053741 99.7210884,106.636054 99.0659864,106.636054 L96.5183673,106.636054 C95.8632653,106.636054 95.2809524,106.126531 95.2809524,105.398639 L95.2809524,96.8823129 L95.7904762,97.1734694 C97.3190476,97.9013605 98.847619,98.1197279 100.303401,97.8285714 Z" id="Path"></path>
                    <path d="M49.714966,5.75034014 C53.2088435,2.83877551 57.7217687,1.16462585 62.6714286,1.31020408 C72.7163265,1.60136054 80.9414966,9.7537415 81.4510204,19.7986395 C81.6693878,24.6027211 80.1408163,29.0428571 77.447619,32.5367347 C76.792517,33.337415 75.6278912,33.4102041 74.9,32.755102 L49.714966,8.3707483 C48.9142857,7.64285714 48.9142857,6.47823129 49.714966,5.75034014 Z" id="Path"></path>
                    <path d="M63.6904762,55.1013605 C63.3265306,58.5952381 61.652381,62.0163265 58.8136054,64.6367347 C52.9904762,69.9503401 43.9646259,69.877551 38.2142857,64.4911565 C35.4482993,61.9435374 33.9197279,58.5952381 33.5557823,55.1741497 C33.4829932,54.3734694 34.0653061,53.6455782 34.8659864,53.6455782 L62.307483,53.5727891 C63.1809524,53.6455782 63.7632653,54.3006803 63.6904762,55.1013605 Z" id="Path"></path>
                </g>
            </g>
        </g>
    </g>
</svg>