<?xml version="1.0" encoding="UTF-8"?>
<svg width="126px" height="121px" viewBox="0 0 126 121" version="1.1" xmlns="http://www.w3.org/2000/svg" xmlns:xlink="http://www.w3.org/1999/xlink">
    <title>icon-tecnologia-qualitat</title>
    <g id="Page-1" stroke="none" stroke-width="1" fill="none" fill-rule="evenodd">
        <g id="icon-tecnologia-qualitat" transform="translate(0.100000, 0.000000)">
            <circle id="Oval" fill="#D1D0D1" fill-rule="nonzero" cx="33.6" cy="33.6" r="33.6"></circle>
            <g id="Layer_4" transform="translate(19.077778, 14.000000)">
                <g id="Group" transform="translate(0.822222, 0.000000)">
                    <path d="M48.769697,19.5511111 L23.8727273,19.5511111 C22.0606061,19.5511111 20.6424242,18.0592593 20.6424242,16.3318519 L20.6424242,16.3318519 C20.6424242,14.5259259 22.1393939,13.1125926 23.8727273,13.1125926 L48.769697,13.1125926 C50.5818182,13.1125926 52,14.6044444 52,16.3318519 L52,16.3318519 C52,18.0592593 50.5818182,19.5511111 48.769697,19.5511111 Z" id="Path" fill="#004F80" fill-rule="nonzero"></path>
                    <path d="M61.2181818,31.957037 L11.8181818,31.957037 C10.9515152,31.957037 10.3212121,31.2503704 10.3212121,30.4651852 L10.3212121,30.4651852 C10.3212121,29.6014815 11.030303,28.9733333 11.8181818,28.9733333 L61.2969697,28.9733333 C62.1636364,28.9733333 62.7939394,29.68 62.7939394,30.4651852 L62.7939394,30.4651852 C62.7939394,31.2503704 62.0848485,31.957037 61.2181818,31.957037 Z" id="Path" fill="#004F80" fill-rule="nonzero"></path>
                    <path d="M56.9636364,40.5155556 L11.5818182,40.5155556 C10.7151515,40.5155556 10.0848485,39.8088889 10.0848485,39.0237037 L10.0848485,39.0237037 C10.0848485,38.16 10.7939394,37.5318519 11.5818182,37.5318519 L56.9636364,37.5318519 C57.830303,37.5318519 58.4606061,38.2385185 58.4606061,39.0237037 L58.4606061,39.0237037 C58.4606061,39.8088889 57.830303,40.5155556 56.9636364,40.5155556 Z" id="Path" fill="#004F80" fill-rule="nonzero"></path>
                    <path d="M46.4060606,66.7407407 L10.7939394,66.7407407 C9.92727273,66.7407407 9.2969697,66.0340741 9.2969697,65.2488889 L9.2969697,65.2488889 C9.2969697,64.3851852 10.0060606,63.757037 10.7939394,63.757037 L46.4060606,63.757037 C47.2727273,63.757037 47.9030303,64.4637037 47.9030303,65.2488889 L47.9030303,65.2488889 C47.9030303,66.0340741 47.2727273,66.7407407 46.4060606,66.7407407 Z" id="Path" fill="#004F80" fill-rule="nonzero"></path>
                    <path d="M46.4060606,76.162963 L10.7939394,76.162963 C9.92727273,76.162963 9.2969697,75.4562963 9.2969697,74.6711111 L9.2969697,74.6711111 C9.2969697,73.8074074 10.0060606,73.1792593 10.7939394,73.1792593 L46.4060606,73.1792593 C47.2727273,73.1792593 47.9030303,73.8859259 47.9030303,74.6711111 L47.9030303,74.6711111 C47.9030303,75.5348148 47.2727273,76.162963 46.4060606,76.162963 Z" id="Path" fill="#004F80" fill-rule="nonzero"></path>
                    <path d="M30.9636364,84.5644444 L11.5818182,84.5644444 C10.7151515,84.5644444 10.0848485,83.8577778 10.0848485,83.0725926 L10.0848485,83.0725926 C10.0848485,82.2088889 10.7939394,81.5807407 11.5818182,81.5807407 L30.9636364,81.5807407 C31.830303,81.5807407 32.4606061,82.2874074 32.4606061,83.0725926 L32.4606061,83.0725926 C32.4606061,83.9362963 31.830303,84.5644444 30.9636364,84.5644444 Z" id="Path" fill="#004F80" fill-rule="nonzero"></path>
                    <path d="M30.9636364,50.0162963 L11.5818182,50.0162963 C10.7151515,50.0162963 10.0848485,49.3096296 10.0848485,48.5244444 L10.0848485,48.5244444 C10.0848485,47.6607407 10.7939394,47.0325926 11.5818182,47.0325926 L30.9636364,47.0325926 C31.830303,47.0325926 32.4606061,47.7392593 32.4606061,48.5244444 L32.4606061,48.5244444 C32.4606061,49.3096296 31.830303,50.0162963 30.9636364,50.0162963 Z" id="Path" fill="#004F80" fill-rule="nonzero"></path>
                    <path d="M46.9575758,58.3392593 L23.4787879,58.3392593 C22.6121212,58.3392593 21.9818182,57.6325926 21.9818182,56.8474074 L21.9818182,56.8474074 C21.9818182,55.9837037 22.6909091,55.3555556 23.4787879,55.3555556 L46.9575758,55.3555556 C47.8242424,55.3555556 48.4545455,56.0622222 48.4545455,56.8474074 L48.4545455,56.8474074 C48.4545455,57.7111111 47.8242424,58.3392593 46.9575758,58.3392593 Z" id="Path" fill="#004F80" fill-rule="nonzero"></path>
                    <path d="M49.8727273,49.2311111 L37.8181818,49.2311111 C36.9515152,49.2311111 36.3212121,48.5244444 36.3212121,47.7392593 L36.3212121,47.7392593 C36.3212121,46.8755556 37.030303,46.2474074 37.8181818,46.2474074 L49.8727273,46.2474074 C50.7393939,46.2474074 51.369697,46.9540741 51.369697,47.7392593 L51.369697,47.7392593 C51.4484848,48.5244444 50.7393939,49.2311111 49.8727273,49.2311111 Z" id="Path" fill="#004F80" fill-rule="nonzero"></path>
                    <path d="M16.8606061,58.3392593 L11.5818182,58.3392593 C10.7151515,58.3392593 10.0848485,57.6325926 10.0848485,56.8474074 L10.0848485,56.8474074 C10.0848485,55.9837037 10.7939394,55.3555556 11.5818182,55.3555556 L16.8606061,55.3555556 C17.7272727,55.3555556 18.3575758,56.0622222 18.3575758,56.8474074 L18.3575758,56.8474074 C18.4363636,57.7111111 17.7272727,58.3392593 16.8606061,58.3392593 Z" id="Path" fill="#004F80" fill-rule="nonzero"></path>
                    <path d="M70.830303,13.8192593 L61.4545455,13.8192593 C59.6424242,13.8192593 58.1454545,12.3274074 58.1454545,10.5214815 L58.1454545,0.54962963" id="Path" stroke="#004F80" stroke-width="1.5"></path>
                    <path d="M60.6666667,2.12 L69.7272727,11.1496296 C70.5151515,11.9348148 70.9878788,13.0340741 70.9878788,14.1333333 L70.9878788,91.6311111 C70.9878788,94.5362963 68.6242424,96.8133333 65.7878788,96.8133333 L5.27878788,96.8133333 C2.36363636,96.8133333 0.0787878788,94.4577778 0.0787878788,91.6311111 L0.0787878788,5.33925926 C0.0787878788,2.43407407 2.44242424,0.157037037 5.27878788,0.157037037 L55.9393939,0.157037037 C57.6727273,0.157037037 59.4060606,0.863703704 60.6666667,2.12 Z" id="Path" stroke="#004F80" stroke-width="1.5"></path>
                    <path d="M65,103.251852 L65,103.251852 C64.1333333,101.053333 61.6121212,99.9540741 59.4060606,100.974815 L59.4060606,100.974815 C58.2242424,101.445926 56.8848485,100.974815 56.4121212,99.797037 C56.0969697,99.0118519 56.0969697,98.0696296 56.4909091,97.2059259 L63.2666667,82.3659259 C64.0545455,80.717037 66.0242424,80.0103704 67.6787879,80.717037 L75.3212121,84.1718519 C76.9757576,84.957037 77.6848485,86.92 76.9757576,88.5688889 L70.2,103.408889 C70.1212121,103.644444 69.9636364,103.801481 69.8848485,103.958519 C68.4666667,105.607407 65.7878788,105.214815 65,103.251852 Z" id="Path" stroke="#004F80" stroke-width="1.5" fill="#FFFFFF" fill-rule="nonzero"></path>
                    <path d="M90.369697,103.801481 L90.369697,103.801481 C91.2363636,101.602963 93.7575758,100.503704 95.9636364,101.524444 L95.9636364,101.524444 C97.1454545,101.995556 98.4848485,101.524444 98.9575758,100.346667 C99.2727273,99.5614815 99.2727273,98.6192593 98.8787879,97.7555556 L92.1030303,82.9155556 C91.3151515,81.2666667 89.3454545,80.56 87.6909091,81.2666667 L80.0484848,84.7214815 C78.3939394,85.5066667 77.6848485,87.4696296 78.3939394,89.1185185 L85.169697,103.958519 C85.2484848,104.194074 85.4060606,104.351111 85.4848485,104.508148 C86.9030303,106.235556 89.5818182,105.764444 90.369697,103.801481 Z" id="Path" stroke="#004F80" stroke-width="1.5" fill="#FFFFFF" fill-rule="nonzero"></path>
                    <path d="M80.6,42.8711111 L80.6,42.8711111 C82.8848485,39.4948148 88.2424242,41.2222222 88.0848485,45.3051852 L88.0848485,45.3051852 C88.0060606,48.2103704 90.8424242,50.2518519 93.6,49.3096296 L93.6,49.3096296 C97.4606061,47.9748148 100.769697,52.4503704 98.2484848,55.6696296 L98.2484848,55.6696296 C96.5151515,57.9466667 97.5393939,61.322963 100.375758,62.1081481 L100.375758,62.1081481 C104.315152,63.2859259 104.315152,68.8607407 100.375758,69.96 L100.375758,69.96 C97.6181818,70.7451852 96.5151515,74.1214815 98.2484848,76.3985185 L98.2484848,76.3985185 C100.769697,79.6177778 97.4606061,84.1718519 93.6,82.7585185 L93.6,82.7585185 C90.8424242,81.8162963 88.0060606,83.8577778 88.0848485,86.762963 L88.0848485,86.762963 C88.1636364,90.8459259 82.8848485,92.5733333 80.6,89.197037 L80.6,89.197037 C78.9454545,86.8414815 75.4787879,86.8414815 73.8242424,89.197037 L73.8242424,89.197037 C71.5393939,92.5733333 66.1818182,90.8459259 66.3393939,86.762963 L66.3393939,86.762963 C66.4181818,83.8577778 63.5818182,81.8162963 60.8242424,82.7585185 L60.8242424,82.7585185 C56.9636364,84.0933333 53.6545455,79.6177778 56.1757576,76.3985185 L56.1757576,76.3985185 C57.9090909,74.1214815 56.8848485,70.7451852 54.0484848,69.96 L54.0484848,69.96 C50.1090909,68.7822222 50.1090909,63.2074074 54.0484848,62.1081481 L54.0484848,62.1081481 C56.8060606,61.322963 57.9090909,57.9466667 56.1757576,55.6696296 L56.1757576,55.6696296 C53.6545455,52.4503704 56.9636364,47.8962963 60.8242424,49.3096296 L60.8242424,49.3096296 C63.5818182,50.2518519 66.4181818,48.2103704 66.3393939,45.3051852 L66.3393939,45.3051852 C66.2606061,41.2222222 71.5393939,39.4948148 73.8242424,42.8711111 L73.8242424,42.8711111 C75.4787879,45.2266667 78.9454545,45.2266667 80.6,42.8711111 Z" id="Path" stroke="#004F80" stroke-width="1.5" fill="#FFFFFF" fill-rule="nonzero"></path>
                    <ellipse id="Oval" stroke="#004F80" stroke-width="1.5" fill="#FFFFFF" fill-rule="nonzero" cx="77.2121212" cy="66.0340741" rx="15.9939394" ry="15.9392593"></ellipse>
                    <path d="M74.3757576,72.08 C74.3757576,72.08 74.2969697,72.08 74.2969697,72.08 C73.8242424,72.08 73.2727273,71.8444444 72.9575758,71.4518519 L70.830303,69.5674074 C70.3575758,69.1748148 70.3575758,68.4681481 70.7515152,67.997037 L70.830303,67.9185185 C71.2242424,67.4474074 71.9333333,67.4474074 72.4060606,67.84 L73.5878788,68.8607407 C74.0606061,69.2533333 74.6909091,69.2533333 75.1636364,68.7822222 L81.7818182,61.9511111 C82.1757576,61.48 82.8848485,61.48 83.3575758,61.9511111 L83.4363636,62.0296296 C83.9090909,62.4222222 83.9090909,63.1288889 83.4363636,63.6 L75.7939394,71.5303704 C75.4,71.922963 74.9272727,72.08 74.3757576,72.08 Z" id="Path" fill="#004F80" fill-rule="nonzero"></path>
                </g>
            </g>
        </g>
    </g>
</svg>