<?xml version="1.0" encoding="UTF-8"?>
<svg width="109px" height="115px" viewBox="0 0 109 115" version="1.1" xmlns="http://www.w3.org/2000/svg" xmlns:xlink="http://www.w3.org/1999/xlink">
    <title>icon-alta-professionalitat</title>
    <g id="Page-1" stroke="none" stroke-width="1" fill="none" fill-rule="evenodd">
        <g id="icon-alta-professionalitat" transform="translate(0.500000, 0.200000)">
            <path d="M51,63 L12,63 C5.4,63 0,57.6 0,51 L0,12 C0,5.4 5.4,0 12,0 L51,0 C57.6,0 63,5.4 63,12 L63,51 C63,57.6 57.6,63 51,63 Z" id="Path" fill="#4EAACE" fill-rule="nonzero"></path>
            <g id="Group" transform="translate(10.500000, 10.800000)" stroke="#004F80" stroke-width="1.8">
                <path d="M70.9089616,31.2252816 C70.9089616,31.0725907 70.9089616,30.9198999 70.9089616,30.767209 C70.0796586,30.9962453 69.0241821,31.0725907 68.3456615,30.767209 C68.1194879,30.6908636 67.9687055,30.5381727 67.8179232,30.3854819 C67.0640114,29.4693367 67.5163585,26.5682103 67.4409673,24.8886108 C67.3655761,23.2090113 65.1038407,20.7659574 65.1038407,20.7659574 L56.1322902,20.7659574 C54.9260313,24.6595745 51.3072546,27.4843554 47.0099573,27.4843554 C42.71266,27.4843554 39.1692745,24.6595745 37.8876245,20.7659574 L29.6699858,20.7659574 C29.6699858,20.7659574 27.4082504,23.2853567 27.3328592,24.8886108 C27.257468,26.5682103 27.7098151,29.4693367 26.9559033,30.3854819 C26.7297297,30.6145181 26.428165,30.767209 26.0512091,30.8435544 C25.2972973,30.9962453 24.3172119,30.9198999 23.6386913,30.6145181 C23.6386913,30.6145181 23.6386913,30.6145181 23.6386913,30.6145181 C23.6386913,30.6145181 23.6386913,30.6145181 23.6386913,30.6145181 C22.1308677,31.2252816 21,32.8285357 21,34.8135169 C21,37.2565707 22.7339972,39.2415519 24.8449502,39.2415519 C25.0711238,39.2415519 25.2219061,39.2415519 25.4480797,39.1652065 C27.1066856,46.8760951 29.8961593,52.2202753 33.514936,55.7321652 C37.3598862,59.3967459 42.1095306,61 47.5376956,61 C57.9416785,61 66.5362731,54.3579474 69.7780939,39.8523154 C69.9288762,39.8523154 70.0796586,39.8523154 70.1550498,39.8523154 C72.2660028,39.8523154 74,37.8673342 74,35.4242804 C74,33.4392991 72.7183499,31.6070088 70.9089616,31.2252816 Z M47.0853485,8.24530663 C51.3826458,8.24530663 55.0014225,11.146433 56.2076814,15.0400501 L69.1749644,15.0400501 C65.6315789,2.59574468 57.3385491,0 47.5376956,0 C37.3598862,0 27.7852063,0 24.9203414,15.0400501 L37.8876245,15.0400501 C39.1692745,11.146433 42.7880512,8.24530663 47.0853485,8.24530663 Z" id="Shape"></path>
                <path d="M58.45,63 C58.55,60.2142857 58.55,58 58.55,58" id="Path"></path>
                <path d="M47,99.4625 C47.3636364,99.5625 47.7272727,99.5625 48,99.4625" id="Path"></path>
                <path d="M37.35,58 L37.35,61.721519 C37.35,61.721519 37.45,62.6329114 37.65,64" id="Path"></path>
                <path d="M59,65 C58.925,68.5307018 58.775,72.4451754 58.55,74.2105263 C58.025,78.3552632 52.175,92.9385965 49.25,99.002193 C49.025,99.5394737 48.575,99.8464912 48.125,100 C47.975,99.8464912 47.825,99.6929825 47.75,99.5394737 C47.6,99.6929825 47.45,99.8464912 47.3,100 C46.7,99.8464912 46.175,99.4627193 45.95,98.7719298 C43.7,92.247807 40.025,76.8201754 39.35,74.2105263 C38.75,71.8311404 38.3,67.9166667 38,65" id="Path"></path>
                <path d="M47,99.359159 C46.1050847,100.106538 44.8372881,100.256014 43.7186441,99.5086349 C42.6,98.6865176 41.5559322,97.9391382 41.0338983,97.4159727 C39.6915254,96.0706898 28.2067797,85.6821166 27.6101695,83.9631441 C27.4610169,83.4399786 27.2372881,83.0662889 27.0135593,82.6925992 C26.4915254,81.795744 26.4915254,80.6746749 27.0881356,79.7778197 C28.0576271,78.2830609 29.3254237,76.2651367 29.4745763,75.5177573 C29.6983051,74.2472124 25,71.7808605 25,70.8092673 C25,69.0902948 27.9084746,67.0723705 30.5186441,65.3533979 C31.4881356,64.6807565 32.3830508,64.082853 33.1288136,63.5596875 C33.9491525,62.961784 34.9932203,62.8123081 35.8881356,63.2607357 L37.6033898,64.082853 C37.6779661,64.4565427 37.6779661,64.9049703 37.7525424,65.3533979 C38.0508475,68.1187016 38.4983051,71.9303363 39.0949153,74.3219503 C39.7661017,76.9377781 43.420339,91.9601033 45.6576271,98.23809 C45.8813559,98.8359935 46.4033898,99.2096831 47,99.359159 Z" id="Path"></path>
                <path d="M65.5243321,75.5177573 C65.6734753,76.2651367 66.9411929,78.3577989 67.9106241,79.7778197 C68.5071971,80.6746749 68.5071971,81.795744 67.9851957,82.6925992 C67.7614808,83.0662889 67.5377659,83.4399786 67.3886227,83.9631441 C66.7920497,85.6821166 55.3080193,96.0706898 53.9657301,97.4159727 C53.4437287,97.9391382 52.3997259,98.6865176 51.2811515,99.5086349 C50.1625771,100.256014 48.8202879,100.106538 48,99.359159 C48.4474298,99.2096831 48.8948595,98.9107314 49.1185744,98.3875658 C52.0268678,92.4832689 57.8434546,78.2830609 58.365456,74.2472124 C58.5891709,72.5282398 58.7383141,68.791343 58.8128857,65.27866 C58.8128857,64.6060186 58.8874574,63.9333771 58.8874574,63.3354737 L59.1111722,63.2607357 C60.0060317,62.8123081 61.1246061,62.961784 61.8703224,63.5596875 C62.541467,64.082853 63.5108982,64.6807565 64.4803293,65.3533979 C67.0903362,67.0723705 70.0732012,69.0902948 69.9986296,70.8092673 C69.9986296,71.7808605 65.3006172,74.2472124 65.5243321,75.5177573 Z" id="Path"></path>
                <path d="M96,91.6552011 C96,93.3919191 95.8481013,95.1286372 95.4683544,96.7898458 C95.164557,98.4510544 94.6329114,100.112263 94.0253165,101.622453 L2.12658228,102 C0.759493671,98.8286018 0,95.2796562 0,91.6552011 C0,84.3307814 3.03797468,77.6859471 7.89873418,72.8533403 C12.7594937,68.0207335 19.443038,65 26.8101266,65 L30,65 C27.3417722,66.7370723 24.3037975,68.7758283 24.3797468,70.5125464 C24.3797468,71.5696791 29.164557,74.061492 28.9367089,75.2696437 C28.7848101,76.0247385 27.4936709,78.139004 26.5063291,79.5736841 C25.8987342,80.4797979 25.8987342,81.6124401 26.4303797,82.5185539 C26.6582278,82.8961013 26.8860759,83.2736487 27.0379747,83.802215 C27.6455696,85.5389331 39.3417722,96.034751 40.7088608,97.3939216 C41.2405063,97.922488 42.3037975,98.6775828 43.443038,99.5081871 C44.5063291,100.263282 45.8734177,100.112263 46.7848101,99.3571682 C46.9367089,99.2061492 47.0886076,99.0551302 47.2405063,98.9041113 C47.3924051,99.0551302 47.4683544,99.2061492 47.6202532,99.3571682 C48.5316456,100.112263 49.8987342,100.263282 50.9620253,99.5081871 C52.1012658,98.6775828 53.164557,97.922488 53.6962025,97.3939216 C55.0632911,96.034751 66.7594937,85.5389331 67.3670886,83.802215 C67.5189873,83.2736487 67.7468354,82.8961013 67.9746835,82.5185539 C68.5063291,81.6124401 68.5063291,80.4797979 67.8987342,79.5736841 C66.9113924,78.0634945 65.6202532,76.0247385 65.4683544,75.2696437 C65.2405063,73.9859825 70.0253165,71.4941696 70.0253165,70.5125464 C70.0253165,68.7758283 67.0632911,66.7370723 64.4050633,65 L69.1139241,65 C83.9240506,64.9248448 96,76.9308523 96,91.6552011 Z" id="Path"></path>
                <path d="M38,21 L22,21 L22,15 L38,15 C37.6952381,15.9473684 37.5428571,16.8947368 37.5428571,18 C37.5428571,19.0263158 37.6952381,20.0526316 38,21 Z" id="Path"></path>
                <path d="M73,15.0779221 L73,21 L56,21 C56.3090909,20.0649351 56.4636364,19.0519481 56.4636364,17.961039 C56.4636364,16.9480519 56.3090909,15.9350649 56,15 L73,15 L73,15.0779221 Z" id="Path"></path>
                <path d="M56.5511811,15.6574803 C55.3543307,11.7677165 51.7637795,9 47.5,9 C43.2362205,9 39.6456693,11.8425197 38.4488189,15.6574803 C38.1496063,16.5551181 38,17.4527559 38,18.5 C38,19.4724409 38.1496063,20.4448819 38.4488189,21.4173228 C39.6456693,25.2322835 43.2362205,28 47.5,28 C51.7637795,28 55.2795276,25.2322835 56.5511811,21.4173228 C56.8503937,20.519685 57,19.5472441 57,18.5 C56.9251969,17.5275591 56.7755906,16.5551181 56.5511811,15.6574803 Z M51.3149606,21.3425197 C50.492126,22.3897638 49.2204724,22.988189 47.7992126,22.988189 C46.3779528,22.988189 45.1062992,22.3149606 44.2834646,21.3425197 C43.6102362,20.5944882 43.2362205,19.5472441 43.2362205,18.4251969 C43.2362205,17.3779528 43.6102362,16.4055118 44.2086614,15.5826772 C45.0314961,14.5354331 46.3031496,13.8622047 47.7992126,13.8622047 C49.2204724,13.8622047 50.5669291,14.5354331 51.3897638,15.5826772 C51.988189,16.3307087 52.3622047,17.3031496 52.3622047,18.4251969 C52.3622047,19.5472441 51.988189,20.5944882 51.3149606,21.3425197 Z" id="Shape"></path>
                <path d="M52,18.5 C52,19.6065574 51.6311475,20.5655738 50.9672131,21.3770492 C50.1557377,22.4098361 48.9016393,23 47.5,23 C46.0983607,23 44.8442623,22.3360656 44.0327869,21.3770492 C43.3688525,20.6393443 43,19.6065574 43,18.5 C43,17.4672131 43.3688525,16.5081967 43.9590164,15.6967213 C44.7704918,14.6639344 46.0245902,14 47.5,14 C48.9016393,14 50.2295082,14.6639344 51.0409836,15.6967213 C51.6311475,16.5081967 52,17.4672131 52,18.5 Z" id="Path"></path>
                <path d="M27.1554122,30.4736842 C26.9183632,30.6992481 26.6022979,30.8496241 26.2072163,30.924812 C25.417053,31.075188 24.3898408,31 23.6786938,30.6992481 C23.3626285,30.5488722 23.1255795,30.3984962 22.9675469,30.2481203 C21.782302,28.8195489 22.0193509,21 22.0193509,21 L30,21 C30,21 27.6295102,23.481203 27.5504939,25.0601504 C27.3924612,26.7142857 27.9455755,29.6466165 27.1554122,30.4736842 Z" id="Path"></path>
                <path d="M72.0426181,30.2787799 C71.8843571,30.5032666 71.4887044,30.6529243 71.0930517,30.802582 C70.2226157,31.0270687 69.1147881,31.1018975 68.4026133,30.802582 C68.1652216,30.7277532 68.0069606,30.5780954 67.8486995,30.4284377 C67.0573941,29.5304912 67.5321773,26.6869942 67.4530468,25.040759 C67.3739162,23.3945239 65,21 65,21 L72.9921846,21 C72.9921846,21 73.1504457,28.8570314 72.0426181,30.2787799 Z" id="Path"></path>
                <path d="M26,31 C26,31 32.3119266,41.6060606 33.0458716,44.7878788 C33.4862385,46.6818182 34,49.3333333 34,51.7575758 C34,53.0454545 33.4862385,56 33.4862385,56" id="Path"></path>
                <path d="M35,33 C35,33 35.3472222,31 37.5,31 C39.4444444,31 40,33 40,33" id="Path"></path>
                <path d="M55,34 C55,34 55.3472222,32 57.5,32 C59.4444444,32 60,34 60,34" id="Path"></path>
                <path d="M69,31 C69,31 62.6880734,41.6060606 61.9541284,44.7878788 C61.5137615,46.6818182 61,49.3333333 61,51.7575758 C61,53.0454545 61.5137615,56 61.5137615,56" id="Path"></path>
                <path d="M33,42 C33,42 41.4090909,38.791968 47.8484848,39.0106974 C54.2878788,39.2294269 63,42 63,42" id="Path"></path>
                <path d="M23.7054279,39 C23.7054279,39 22.4085869,46.5418994 23.7054279,50.1620112 C24.9302222,53.4050279 21.9763066,56.0446927 21.3999328,58.3072626 C20.8235591,60.6452514 21.0396992,63.5865922 21.0396992,63.9636872 L21.1837927,66" id="Path"></path>
                <path d="M72.2945721,39 C72.2945721,39 73.5914131,46.5418994 72.2945721,50.1620112 C71.0697778,53.4050279 74.0236934,56.0446927 74.6000672,58.3072626 C75.1764409,60.6452514 74.9603008,63.5865922 74.9603008,63.9636872 L74.8162073,66" id="Path"></path>
            </g>
        </g>
    </g>
</svg>