<?xml version="1.0" encoding="UTF-8"?>
<svg width="117px" height="115px" viewBox="0 0 117 115" version="1.1" xmlns="http://www.w3.org/2000/svg" xmlns:xlink="http://www.w3.org/1999/xlink">
    <title>icon-tractaments-dentals</title>
    <g id="Page-1" stroke="none" stroke-width="1" fill="none" fill-rule="evenodd">
        <g id="icon-tractaments-dentals" transform="translate(0.800000, 0.800000)">
            <path d="M28.6,63 L0,63 L0,34.2 C0,15.3 15.3,-3.55271368e-15 34.2,-3.55271368e-15 L63,-3.55271368e-15 L63,28.6 C63,47.6 47.6,63 28.6,63 Z" id="Path" fill="#ACD8E5" fill-rule="nonzero"></path>
            <path d="M68.9559084,77.4041891 C71.183493,77.510719 73.8353795,83.4763902 74.1536059,96.473031 C74.5779077,109.469672 76.1690396,112.878627 80.199907,113.198216 C84.124699,113.624336 87.5191137,109.256612 88.6859437,107.552135 C89.8527737,105.847657 97.9145086,85.1808677 101.62715,77.1911294 C105.339791,69.2013912 114.037978,56.8439294 114.568356,41.9297514 C115.098733,27.0155734 102.581829,14.445052 90.9135283,14.2319923 C79.2452279,14.0189326 71.6077948,21.1564321 69.0619838,21.1564321 L68.637682,21.1564321 C66.091871,21.1564321 57.9240607,14.0189326 46.2557602,14.2319923 C34.5874598,14.445052 22.0705556,27.0155734 22.6009329,41.9297514 C23.1313102,56.8439294 31.8294978,69.2013912 35.5421389,77.1911294 C39.2547799,85.0743378 47.3165148,105.847657 48.4833449,107.552135 C49.6501749,109.256612 52.9385141,113.624336 56.9693815,113.198216 C60.8941735,112.772097 62.5913809,109.469672 63.0156827,96.473031 C63.4399845,83.4763902 65.8797201,77.6172488 68.2133802,77.4041891 L68.9559084,77.4041891 Z" id="Path" stroke="#004F80" stroke-width="1.5"></path>
        </g>
    </g>
</svg>