<?xml version="1.0" encoding="UTF-8"?>
<svg width="157px" height="54px" viewBox="0 0 157 54" version="1.1" xmlns="http://www.w3.org/2000/svg" xmlns:xlink="http://www.w3.org/1999/xlink">
    <title>Group</title>
    <g id="Page-1" stroke="none" stroke-width="1" fill="none" fill-rule="evenodd">
        <g id="Desktop-HD" transform="translate(-390.000000, -38.000000)" fill="#2D2E82">
            <g id="Group" transform="translate(390.000000, 38.000000)">
                <path d="M56.3900687,4.72595193 C55.9607782,4.10166844 55.0675408,2.80272595 53.4483851,1.78178177 C51.4707419,0.534334265 47.9667323,-0.559374572 42.5022213,1.31123696 C39.7192857,2.26426745 36.4921536,4.31772352 35.2344665,5.15582316 L35.1972017,5.18082435 C33.3999201,6.37938893 29.1908604,9.18698541 25.2478715,10.4415228 C22.148185,11.4285101 18.7119974,11.6102352 15.0335885,10.9829665 C14.9724742,10.9728914 14.9117326,11.0116992 14.8971993,11.0732693 C14.882666,11.1344663 14.9184402,11.1964095 14.9784366,11.214694 C18.1843277,12.1930988 21.3961812,12.4882621 24.524189,12.0923477 C27.2486188,11.7475552 29.3168155,10.9475171 31.1413003,10.2415133 C33.5173043,9.32243963 34.7295284,8.58956888 35.9022518,7.88057987 C36.7809559,7.34883811 37.6898445,6.79955821 39.093237,6.16408016 C42.2834769,4.71923519 48.2212509,2.03067423 52.1918158,4.43377382 C54.4657142,5.80958566 55.2206992,8.32948186 55.8869939,10.5527221 C57.7807913,16.87168 56.092323,22.8596519 54.3419951,26.7706592 C54.316655,26.8277515 54.3393865,26.895292 54.3949111,26.924771 C54.4124256,26.9340998 54.4318033,26.9385776 54.4508083,26.9385776 C54.4906817,26.9385776 54.5298097,26.9184274 54.5521686,26.8822317 C56.8823368,23.1104101 58.1925674,19.0762627 58.445968,14.892108 C58.6047161,12.2654903 58.8454467,8.29589817 56.3900687,4.72595193" id="Fill-54"></path>
                <path d="M25.8753483,52.2015042 C25.1771004,52.3095771 24.4682397,52.3470717 23.7681619,52.3136206 C20.6070164,52.1610687 18.3596681,50.6061425 17.0169681,49.6772303 C15.5710679,48.6766371 14.3297382,47.5198161 12.867004,45.8079269 C9.50531345,41.8753972 7.48961658,38.016754 6.58679811,36.0662957 C5.07648929,32.8024211 2.79400902,27.8689305 2.60114913,21.2176693 C2.49136172,17.42262 2.35412746,12.6993938 5.6781243,9.13041538 C5.99650779,8.78818457 8.91392526,5.77831792 13.2150301,5.40741472 C14.5862748,5.28868158 15.5070252,5.49894583 17.1779896,5.8797741 C18.2143828,6.11577 19.5047508,6.40984588 21.369673,6.74031365 C23.3509698,7.09099914 25.3597134,7.37147401 27.3402783,7.57365118 C27.3970018,7.5791651 27.4559211,7.53872967 27.4672658,7.47844411 C27.4786105,7.41815856 27.4416487,7.35971097 27.3830954,7.3435368 C24.9549639,6.67414658 22.5674536,5.92462067 20.2864372,5.115912 C19.8176449,4.94975912 19.4030145,4.79867764 19.0249798,4.66082957 C17.453556,4.08885198 16.5053588,3.74368042 14.9987095,3.51724199 C13.7328607,3.32682785 11.6132317,3.00812312 9.30440248,3.64737056 C5.78461809,4.62186452 3.80332128,7.2295824 3.15228194,8.086446 C1.65551357,10.0563868 0.763307876,12.4299468 0.344285925,15.5552382 C-0.602081557,22.6193085 1.21453414,30.6604459 5.45525586,38.1902588 C8.80523572,45.230803 15.5494764,49.9547644 15.8356556,50.1532657 C15.9985069,50.2642793 19.7682406,52.8289886 22.624909,52.8289886 C22.68639,52.8289886 22.7478709,52.8278858 22.80862,52.8253126 C23.7275406,52.7885532 24.7240443,52.644456 24.7679593,52.6378393 C25.4017986,52.5382211 25.9115782,52.4338241 25.9163356,52.4330889 C25.9785485,52.4202231 26.0199017,52.3599376 26.0081911,52.2970788 C25.9972123,52.2342201 25.9371952,52.1915791 25.8753483,52.2015042" id="Fill-56"></path>
                <path d="M54.0905973,12.8864618 C54.0470413,11.5951427 53.8591599,10.8055869 53.7218477,10.3236843 C53.6277224,9.99392198 53.4856117,9.49515653 53.1777667,8.90383279 C52.6857315,7.95838934 52.0674577,7.33708722 51.7422641,7.05116833 C50.4902134,5.9479636 49.0809182,5.69127364 48.5501255,5.59459333 C47.7598424,5.45069706 46.4527931,5.33902756 44.2399264,6.02815579 C41.6974368,6.81996 39.303702,8.23531471 37.1244252,10.2356227 C37.0786545,10.2779672 37.0727486,10.3491659 37.1107678,10.3982555 C37.1491561,10.4484693 37.2181813,10.4589617 37.269858,10.4241119 C39.2188047,9.090823 42.2832282,7.48098349 45.8131104,7.38317899 C47.4704533,7.3393356 48.8756882,7.63462273 49.876369,8.24318404 C51.0601327,8.96266538 51.6857889,9.92834425 52.0220561,10.4473451 C53.5457781,12.7995245 53.6362122,15.4117664 53.4431631,17.1891102 C53.4361498,17.2524395 53.4793367,17.3101479 53.5413487,17.3206404 C53.5476237,17.3213898 53.5542678,17.3221393 53.5605428,17.3221393 C53.6151724,17.3221393 53.6635269,17.2835421 53.6757079,17.2277073 C53.9979485,15.7419034 54.1374754,14.2815811 54.0905973,12.8864618" id="Fill-58"></path>
                <path d="M19.6559448,24.3906854 L20.324559,27.5828639 C20.3361449,27.6386307 20.3851043,27.6783037 20.4419122,27.6783037 C20.4983464,27.6783037 20.5473059,27.6386307 20.558518,27.5828639 L21.2275059,24.3906854 L24.4151026,23.7207358 C24.4707893,23.7091333 24.5104054,23.6601035 24.5104054,23.6035882 C24.5104054,23.5470729 24.4707893,23.4980431 24.4151026,23.4864406 L21.2275059,22.8168653 L20.558518,19.6246868 C20.53572,19.5135275 20.3481044,19.5135275 20.324559,19.6246868 L19.6559448,22.8168653 L16.4683481,23.4864406 C16.4126614,23.4980431 16.3734191,23.5470729 16.3734191,23.6035882 C16.3734191,23.6601035 16.4126614,23.7091333 16.4683481,23.7207358 L19.6559448,24.3906854 Z" id="Fill-60"></path>
                <path d="M12.0563962,12.2302953 C12.0323621,12.115311 11.8377637,12.115311 11.8137296,12.2302953 L11.3388629,14.498905 L9.07500862,14.9751577 C9.01724932,14.9871999 8.97615882,15.0380883 8.97615882,15.0967458 C8.97615882,15.1554034 9.01724932,15.2062917 9.07500862,15.218334 L11.3388629,15.6941982 L11.8137296,17.9628079 C11.8257467,18.0203 11.8765283,18.0618653 11.9354506,18.0618653 C11.9939852,18.0618653 12.0447668,18.0203 12.0563962,17.9628079 L12.5316506,15.6941982 L14.7955049,15.218334 C14.8532642,15.2062917 14.893967,15.1554034 14.893967,15.0967458 C14.893967,15.0380883 14.8532642,14.9871999 14.7955049,14.9751577 L12.5316506,14.498905 L12.0563962,12.2302953 Z" id="Fill-62"></path>
                <path d="M18.3416248,9.65198878 C18.3752305,9.59794407 18.3598888,9.52698742 18.306558,9.49169292 C14.9638867,7.27475709 11.3034224,7.42769993 8.99303049,8.3104301 C7.20243113,8.99426105 5.78843478,10.4906008 4.90372821,12.6376829 C2.8293068,17.6711935 3.71510921,25.6738539 7.21448535,33.5228361 C10.3434682,40.5412946 14.8068166,46.3689314 19.1532755,49.1123436 C19.17227,49.124476 19.1938215,49.1303585 19.215373,49.1303585 C19.2522662,49.1303585 19.2891594,49.1123436 19.3114415,49.079255 C19.3472388,49.0277838 19.3359152,48.9564595 19.2858719,48.9189591 C15.4504388,45.9998098 11.5236858,40.3019538 8.78153375,33.6772495 C5.49475019,25.7345163 4.78501242,17.7976654 6.92956746,12.9637894 C7.80221982,10.9950181 9.08471561,9.70162167 10.7397963,9.11926241 C13.2810447,8.22550271 16.0633775,8.43984327 18.1834589,9.69132744 C18.2382508,9.72404838 18.3083844,9.70640113 18.3416248,9.65198878" id="Fill-64"></path>
                <path d="M68.154241,19.0054802 C68.154241,19.2093692 68.0961653,19.4275729 67.9792739,19.6593176 C67.8631224,19.8914492 67.6848262,20.1119742 67.4462347,20.3220533 C67.2069034,20.5317455 66.9061672,20.7008147 66.5432862,20.828874 C66.1796654,20.9565463 65.7709157,21.0207694 65.3159273,21.0207694 C64.3486146,21.0207694 63.5936298,20.7259623 63.0506031,20.1359611 C62.5075763,19.5463469 62.2364328,18.7555519 62.2364328,17.7639631 C62.2364328,17.092329 62.3607223,16.498459 62.6093013,15.9827399 C62.8575104,15.4670209 63.2166923,15.0681415 63.6872169,14.7861016 C64.1573715,14.5040617 64.7196336,14.3632352 65.3728933,14.3632352 C65.7783139,14.3632352 66.1500727,14.4255238 66.4885396,14.5489404 C66.8266367,14.6731308 67.1136863,14.8329148 67.3485787,15.029066 C67.5838409,15.2248303 67.7632469,15.4341356 67.8875364,15.6558213 C68.0118259,15.8778938 68.0739707,16.084491 68.0739707,16.2763864 C68.0739707,16.4725376 68.0044278,16.6385117 67.864972,16.7743087 C67.7255162,16.9101057 67.5560977,16.9781976 67.3574565,16.9781976 C67.2272484,16.9781976 67.1192349,16.942991 67.033416,16.8733515 C66.9472271,16.8033252 66.8506808,16.6903544 66.743777,16.5344394 C66.5525339,16.2307339 66.3527829,16.002858 66.144524,15.8504249 C65.9362651,15.6987656 65.6714101,15.6225491 65.3503289,15.6225491 C64.8875724,15.6225491 64.5150738,15.8117363 64.2317233,16.1893371 C63.9491126,16.5673247 63.8078073,17.0842044 63.8078073,17.7399762 C63.8078073,18.0479374 63.8440584,18.3307511 63.9165606,18.5884171 C63.9890628,18.8464701 64.0941171,19.0666082 64.2317233,19.2484447 C64.3696994,19.4302811 64.5361586,19.5683994 64.7307309,19.6620258 C64.9256731,19.7560391 65.1402204,19.8032392 65.3728933,19.8032392 C65.6865764,19.8032392 65.9551305,19.7274095 66.1789256,19.5753633 C66.4027207,19.4233171 66.6002522,19.1911855 66.77263,18.8793554 C66.8676966,18.6955846 66.9712712,18.551663 67.082244,18.4475906 C67.1928469,18.3439052 67.3289735,18.2916756 67.4891442,18.2916756 C67.6803873,18.2916756 67.8387084,18.3678921 67.9652174,18.5195514 C68.0913564,18.6715976 68.154241,18.8337029 68.154241,19.0054802" id="Fill-66"></path>
                <path d="M71.1131451,20.0489466 L71.1131451,13.1162576 C71.1131451,12.7959678 71.178883,12.5542396 71.3107084,12.3903177 C71.4425339,12.2263957 71.6205157,12.1440571 71.8450036,12.1440571 C72.0687921,12.1440571 72.2495713,12.2252626 72.3869915,12.3869184 C72.5240619,12.5493295 72.5925972,12.7921908 72.5925972,13.1162576 L72.5925972,20.0489466 C72.5925972,20.3730134 72.5233626,20.6158747 72.3841941,20.7779081 C72.2450256,20.9395638 72.0652954,21.0207694 71.8450036,21.0207694 C71.6282084,21.0207694 71.451975,20.9369199 71.3163032,20.769221 C71.1806313,20.6011444 71.1131451,20.3613047 71.1131451,20.0489466" id="Fill-68"></path>
                <path d="M77.0236739,15.3768044 L77.0236739,20.0395086 C77.0236739,20.3627833 76.9539996,20.6071455 76.8143044,20.7722138 C76.6746092,20.9380446 76.4967838,21.0207694 76.2822147,21.0207694 C76.0669524,21.0207694 75.8925933,20.9361385 75.7584443,20.7664955 C75.6239487,20.5972338 75.5570475,20.3551589 75.5570475,20.0395086 L75.5570475,15.4240757 C75.5570475,15.1049944 75.6239487,14.8648256 75.7584443,14.7028071 C75.8925933,14.5415509 76.0669524,14.4607322 76.2822147,14.4607322 C76.4967838,14.4607322 76.6746092,14.5415509 76.8143044,14.7028071 C76.9539996,14.8648256 77.0236739,15.0893643 77.0236739,15.3768044 M76.7709746,12.1440571 L77.4964885,12.1440571 C77.6795135,12.1440571 77.7706794,12.173411 77.7706794,12.2325002 C77.7706794,12.2641414 77.6701543,12.3922314 77.4697974,12.6167701 C77.2690938,12.8413088 77.0666571,13.056317 76.8624871,13.2610323 C76.6583172,13.4657475 76.5168888,13.5900253 76.4382019,13.6334844 C76.234032,13.7478505 76.0153033,13.8046523 75.7823624,13.8046523 C75.628455,13.8046523 75.5515013,13.7554749 75.5515013,13.6567388 C75.5515013,13.5900253 75.5979508,13.4737531 75.6908499,13.3083036 L75.93315,12.8115736 C76.0728452,12.5245148 76.1941686,12.3411479 76.2981601,12.2622353 C76.4021516,12.1833228 76.5595253,12.1440571 76.7709746,12.1440571" id="Fill-70"></path>
                <path d="M81.5469896,15.2689353 L81.5469896,15.466634 C81.8388783,15.0870989 82.158622,14.8081541 82.5046513,14.6301865 C82.8514653,14.4522189 83.250066,14.3632352 83.7000611,14.3632352 C84.1378942,14.3632352 84.5294331,14.4572485 84.8735008,14.6452751 C85.2183532,14.8333017 85.4761098,15.0990923 85.6463782,15.443034 C85.7558365,15.6426672 85.826847,15.8585495 85.8590175,16.0906811 C85.8915804,16.3224259 85.9076657,16.6183936 85.9076657,16.9781976 L85.9076657,20.0249249 C85.9076657,20.3530042 85.8319472,20.6009981 85.6797257,20.7685197 C85.5275042,20.9368151 85.3301654,21.0207694 85.0865325,21.0207694 C84.839761,21.0207694 84.6388914,20.9348807 84.4847082,20.7627165 C84.3305251,20.5909391 84.2536296,20.3452665 84.2536296,20.0249249 L84.2536296,17.2962179 C84.2536296,16.7561251 84.1775189,16.3433177 84.0252973,16.0577958 C83.8734681,15.7715002 83.570202,15.6287393 83.1162837,15.6287393 C82.8200794,15.6287393 82.5505532,15.7157886 82.3073126,15.8895004 C82.064072,16.0635991 81.8855648,16.3023078 81.7717909,16.6064002 C81.6909723,16.8501384 81.650563,17.3062769 81.650563,17.9736553 L81.650563,20.0249249 C81.650563,20.356873 81.5720983,20.6056407 81.4163458,20.7720017 C81.2605934,20.9375889 81.0585468,21.0207694 80.8113829,21.0207694 C80.5720656,21.0207694 80.3751192,20.9348807 80.2213283,20.7627165 C80.0671452,20.5909391 79.9898574,20.3452665 79.9898574,20.0249249 L79.9898574,15.2929222 C79.9898574,14.9807052 80.0589064,14.7481867 80.1970043,14.5942061 C80.3347098,14.4402255 80.5234175,14.3632352 80.7623425,14.3632352 C80.9082868,14.3632352 81.0401076,14.3972811 81.1578046,14.4649862 C81.2755017,14.5330781 81.3696593,14.635216 81.4406699,14.771013 C81.5116804,14.9071969 81.5469896,15.073171 81.5469896,15.2689353" id="Fill-72"></path>
                <path d="M90.3460218,15.3843084 L90.3460218,20.0408133 C90.3460218,20.3636582 90.2757382,20.6076954 90.1348214,20.7725443 C89.9939045,20.9381546 89.814524,21.0207694 89.5980786,21.0207694 C89.3812834,21.0207694 89.2050499,20.936251 89.0697278,20.7668336 C88.934056,20.5977969 88.8665698,20.3560439 88.8665698,20.0408133 L88.8665698,15.4315168 C88.8665698,15.1128597 88.934056,14.8730103 89.0697278,14.7112072 C89.2050499,14.5501654 89.3812834,14.4694542 89.5980786,14.4694542 C89.814524,14.4694542 89.9939045,14.5501654 90.1348214,14.7112072 C90.2757382,14.8730103 90.3460218,15.0972505 90.3460218,15.3843084 M89.6141634,13.7198296 C89.408208,13.7198296 89.2319745,13.6509205 89.0858126,13.5131023 C88.9396507,13.3756647 88.8665698,13.1807395 88.8665698,12.929088 C88.8665698,12.7010407 88.9410494,12.5129683 89.0910577,12.3652515 C89.2414156,12.2179155 89.415551,12.1440571 89.6141634,12.1440571 C89.8057823,12.1440571 89.9753721,12.2110626 90.1239816,12.344693 C90.2722415,12.4787041 90.3460218,12.6732486 90.3460218,12.929088 C90.3460218,13.1769324 90.2736402,13.3707155 90.1292267,13.5104373 C89.9848131,13.6501591 89.8131254,13.7198296 89.6141634,13.7198296" id="Fill-74"></path>
                <path d="M99.2227342,19.0054802 C99.2227342,19.2093692 99.1642922,19.4275729 99.047778,19.6593176 C98.9312639,19.8914492 98.7529788,20.1119742 98.5144022,20.3220533 C98.2750859,20.5317455 97.9743685,20.7008147 97.6115102,20.828874 C97.2479121,20.9565463 96.8391879,21.0207694 96.384228,21.0207694 C95.4169758,21.0207694 94.6620382,20.7259623 94.1190453,20.1359611 C93.5764224,19.5463469 93.3049259,18.7555519 93.3049259,17.7639631 C93.3049259,17.092329 93.4292077,16.498459 93.6777712,15.9827399 C93.9263346,15.4670209 94.2854941,15.0681415 94.7559892,14.7861016 C95.2257446,14.5040617 95.7879715,14.3632352 96.4411904,14.3632352 C96.8465856,14.3632352 97.2186911,14.4255238 97.556767,14.5489404 C97.8952128,14.6731308 98.1818746,14.8329148 98.4167523,15.029066 C98.6519999,15.2248303 98.8313946,15.4341356 98.9556764,15.6558213 C99.0799581,15.8778938 99.142099,16.084491 99.142099,16.2763864 C99.142099,16.4725376 99.0725604,16.6385117 98.9331133,16.7743087 C98.7936662,16.9101057 98.6242584,16.9781976 98.4256295,16.9781976 C98.2954296,16.9781976 98.1874229,16.942991 98.1016093,16.8733515 C98.0154258,16.8033252 97.9192554,16.6903544 97.8119885,16.5344394 C97.6207573,16.2307339 97.4210188,16.002858 97.2127729,15.8504249 C97.004527,15.6987656 96.7396886,15.6225491 96.4186274,15.6225491 C95.9558998,15.6225491 95.5834245,15.8117363 95.3004616,16.1893371 C95.0174987,16.5673247 94.8762022,17.0842044 94.8762022,17.7399762 C94.8762022,18.0479374 94.9124511,18.3307511 94.9849487,18.5884171 C95.0574464,18.8464701 95.1624941,19.0666082 95.3004616,19.2484447 C95.4380593,19.4302811 95.604508,19.5683994 95.7990681,19.6620258 C95.9939981,19.7560391 96.2085321,19.8032392 96.4411904,19.8032392 C96.7548539,19.8032392 97.0237611,19.7274095 97.2471723,19.5753633 C97.4709534,19.4233171 97.6688425,19.1911855 97.8408396,18.8793554 C97.9359003,18.6955846 98.0394684,18.551663 98.1504343,18.4475906 C98.2610302,18.3439052 98.3971483,18.2916756 98.557309,18.2916756 C98.7485401,18.2916756 98.9068514,18.3678921 99.0333525,18.5195514 C99.1594836,18.6715976 99.2227342,18.8337029 99.2227342,19.0054802" id="Fill-76"></path>
                <path d="M106.309461,17.7339039 C106.083618,17.8219553 105.755053,17.914641 105.324131,18.0123471 C104.892844,18.1100533 104.594513,18.1818847 104.429138,18.2278413 C104.263398,18.2734118 104.105308,18.3633941 103.954504,18.4974021 C103.804063,18.631024 103.728661,18.8175539 103.728661,19.0569918 C103.728661,19.3045398 103.817177,19.5150135 103.994573,19.6887991 C104.17124,19.8621986 104.402911,19.9490914 104.688857,19.9490914 C104.993745,19.9490914 105.274955,19.8780324 105.532853,19.7366867 C105.790751,19.5949549 105.980167,19.4122869 106.100738,19.1886827 C106.239887,18.9411347 106.309461,18.5340902 106.309461,17.9671629 L106.309461,17.7339039 Z M106.41109,20.0989332 C106.038449,20.4059545 105.678194,20.6365101 105.329959,20.7902138 C104.98136,20.9439175 104.59087,21.0207694 104.158126,21.0207694 C103.762902,21.0207694 103.415395,20.9377385 103.115972,20.7724491 C102.816912,20.6063872 102.58597,20.3820107 102.424237,20.0989332 C102.262505,19.8154695 102.181638,19.5080621 102.181638,19.1767108 C102.181638,18.7298887 102.314958,18.3487189 102.582691,18.0332014 C102.849696,17.7176839 103.216872,17.5064379 103.683857,17.3986908 C103.781479,17.374747 104.024442,17.3206803 104.412017,17.236877 C104.799593,17.1530738 105.132164,17.0762219 105.40864,17.0063214 C105.685479,16.9368072 105.985631,16.8518453 106.309461,16.7522082 C106.290519,16.3208337 106.208924,16.0045439 106.063948,15.8029525 C105.918971,15.6017474 105.618819,15.5005655 105.163127,15.5005655 C104.771544,15.5005655 104.47722,15.5584941 104.279426,15.6743512 C104.081996,15.7902083 103.912249,15.9639939 103.77128,16.1953219 C103.63031,16.4266498 103.530138,16.579195 103.471856,16.6533435 C103.413574,16.7271059 103.288268,16.7637939 103.096666,16.7637939 C102.922912,16.7637939 102.773565,16.705093 102.647166,16.587305 C102.521495,16.4699031 102.458113,16.3189027 102.458113,16.1350762 C102.458113,15.8477506 102.553915,15.5689212 102.746245,15.2970433 C102.938211,15.0259377 103.237271,14.8023335 103.644152,14.6266169 C104.050669,14.4512865 104.556994,14.3632352 105.163127,14.3632352 C105.841019,14.3632352 106.373571,14.448197 106.761146,14.6177346 C107.149086,14.7872721 107.423011,15.0556743 107.582922,15.4229413 C107.743198,15.7902083 107.822607,16.2771942 107.822607,16.8838991 C107.822607,17.2669999 107.821878,17.5921721 107.819693,17.8594158 C107.818236,18.1270456 107.815322,18.4244122 107.811679,18.7515153 C107.811679,19.0589228 107.859762,19.3794607 107.955563,19.7127429 C108.051364,20.0460251 108.099446,20.2603607 108.099446,20.3561359 C108.099446,20.5237425 108.025137,20.6762877 107.876518,20.8141576 C107.727899,20.9520275 107.559609,21.0207694 107.371286,21.0207694 C107.212832,21.0207694 107.056927,20.9419866 106.90248,20.7840348 C106.748033,20.6264691 106.584115,20.3978445 106.41109,20.0989332 L106.41109,20.0989332 Z" id="Fill-78"></path>
                <path d="M116.273928,17.7593274 C116.273928,18.1925496 116.337848,18.5619405 116.464618,18.8659892 C116.592458,19.1707934 116.766722,19.4000574 116.988122,19.5541592 C117.209522,19.7082609 117.451276,19.7853117 117.713385,19.7853117 C117.978708,19.7853117 118.221534,19.7120379 118.441148,19.5658679 C118.660763,19.4196979 118.836098,19.1949662 118.967152,18.8924282 C119.098207,18.5898903 119.163555,18.21219 119.163555,17.7593274 C119.163555,17.3340368 119.098207,16.9680452 118.967152,16.6613526 C118.836098,16.3550377 118.658978,16.1212412 118.435792,15.9588301 C118.212606,15.7967966 117.967995,15.7159688 117.701958,15.7159688 C117.425565,15.7159688 117.178097,15.7990628 116.960625,15.9648733 C116.742439,16.1306837 116.573889,16.3686349 116.453905,16.6791045 C116.33392,16.9891965 116.273928,17.3495225 116.273928,17.7593274 M119.246759,20.1074901 L119.246759,19.9492337 C119.043571,20.1951166 118.843239,20.3952977 118.646122,20.5493994 C118.448647,20.7038789 118.234389,20.820966 118.004062,20.9006607 C117.77302,20.9807332 117.521267,21.0207694 117.248445,21.0207694 C116.886349,21.0207694 116.551392,20.9395638 116.243575,20.7779081 C115.9354,20.6158747 115.668649,20.3847221 115.443678,20.0840727 C115.21835,19.7834232 115.047658,19.4302735 114.931244,19.0242457 C114.815188,18.6182178 114.756981,18.1793301 114.756981,17.706827 C114.756981,16.707432 114.987308,15.9289917 115.449034,15.370373 C115.910046,14.8125097 116.517468,14.5330114 117.270585,14.5330114 C117.705886,14.5330114 118.072982,14.6119508 118.371872,14.7702072 C118.671119,14.9284637 118.962153,15.1713249 119.246759,15.4995465 L119.246759,13.1396751 C119.246759,12.8118312 119.308537,12.5636821 119.432449,12.3959832 C119.555648,12.2282842 119.732053,12.1440571 119.960952,12.1440571 C120.189851,12.1440571 120.3659,12.2211079 120.489813,12.3755874 C120.613011,12.5296891 120.674789,12.7570647 120.674789,13.0577141 L120.674789,20.1074901 C120.674789,20.4119165 120.608726,20.6400475 120.475886,20.7926384 C120.343046,20.9448517 120.171282,21.0207694 119.960952,21.0207694 C119.754193,21.0207694 119.583501,20.94183 119.448876,20.7835736 C119.31425,20.6256949 119.246759,20.4002078 119.246759,20.1074901" id="Fill-80"></path>
                <path d="M125.224205,17.1712247 L128.046307,17.1712247 C128.008061,16.6124074 127.864639,16.1945495 127.615673,15.9168787 C127.366708,15.639594 127.039044,15.5009517 126.632314,15.5009517 C126.244339,15.5009517 125.926237,15.641525 125.677271,15.9230577 C125.428673,16.2045904 125.277529,16.6205174 125.224205,17.1712247 M128.268427,18.0992399 L125.224205,18.0992399 C125.227883,18.4703688 125.299226,18.7978582 125.437867,19.0809356 C125.576508,19.3643993 125.76075,19.5779625 125.990961,19.7216253 C126.220803,19.8656743 126.474182,19.9375057 126.751832,19.9375057 C126.938281,19.9375057 127.108181,19.9143343 127.262267,19.8683776 C127.415986,19.822421 127.565292,19.7505896 127.709817,19.6528834 C127.853974,19.5551773 127.987099,19.4501335 128.108824,19.3385245 C128.230549,19.2269156 128.388313,19.0751428 128.582116,18.8835924 C128.661918,18.811761 128.77592,18.7758453 128.924122,18.7758453 C129.083725,18.7758453 129.213173,18.821802 129.311729,18.9137152 C129.410654,19.0052423 129.4603,19.1350023 129.4603,19.3026089 C129.4603,19.4501335 129.40477,19.6231468 129.294445,19.82049 C129.184488,20.0182194 129.017898,20.2078389 128.795778,20.3893483 C128.57329,20.5708577 128.294169,20.7214719 127.958047,20.8411909 C127.621557,20.9609099 127.234686,21.0207694 126.797433,21.0207694 C125.797893,21.0207694 125.02084,20.7214719 124.46554,20.122877 C123.910975,19.5238959 123.633693,18.7117377 123.633693,17.6860163 C123.633693,17.2032785 123.701727,16.7552978 123.838529,16.3420742 C123.975331,15.9288506 124.175019,15.5747141 124.437223,15.2796647 C124.699428,14.9838429 125.022679,14.7575354 125.406608,14.5999698 C125.790538,14.4424042 126.216023,14.3632352 126.683799,14.3632352 C127.291687,14.3632352 127.813154,14.4980156 128.248568,14.7675764 C128.683615,15.0371372 129.00944,15.3850946 129.226412,15.8122211 C129.443015,16.2393475 129.551501,16.6741978 129.551501,17.1175442 C129.551501,17.5284507 129.43897,17.794922 129.215011,17.9165719 C128.990685,18.0386081 128.675157,18.0992399 128.268427,18.0992399" id="Fill-82"></path>
                <path d="M134.067538,15.2689353 L134.067538,15.466634 C134.359426,15.0870989 134.678778,14.8081541 135.025199,14.6301865 C135.372013,14.4522189 135.770614,14.3632352 136.220609,14.3632352 C136.658442,14.3632352 137.049981,14.4572485 137.394049,14.6452751 C137.738901,14.8333017 137.996658,15.0990923 138.166926,15.443034 C138.276384,15.6426672 138.347003,15.8585495 138.379565,16.0906811 C138.412128,16.3224259 138.428214,16.6183936 138.428214,16.9781976 L138.428214,20.0249249 C138.428214,20.3530042 138.352495,20.6009981 138.200274,20.7685197 C138.048052,20.9368151 137.850713,21.0207694 137.60708,21.0207694 C137.360309,21.0207694 137.159439,20.9348807 137.005256,20.7627165 C136.851073,20.5909391 136.773785,20.3452665 136.773785,20.0249249 L136.773785,17.2962179 C136.773785,16.7561251 136.698067,16.3433177 136.545845,16.0577958 C136.394016,15.7715002 136.09075,15.6287393 135.636832,15.6287393 C135.340627,15.6287393 135.071101,15.7157886 134.827861,15.8895004 C134.584228,16.0635991 134.40572,16.3023078 134.292339,16.6064002 C134.21152,16.8501384 134.171111,17.3062769 134.171111,17.9736553 L134.171111,20.0249249 C134.171111,20.356873 134.092646,20.6056407 133.936894,20.7720017 C133.780749,20.9375889 133.579095,21.0207694 133.331539,21.0207694 C133.092614,21.0207694 132.895667,20.9348807 132.741876,20.7627165 C132.587693,20.5909391 132.510405,20.3452665 132.510405,20.0249249 L132.510405,15.2929222 C132.510405,14.9807052 132.579454,14.7481867 132.717552,14.5942061 C132.855258,14.4402255 133.043965,14.3632352 133.28289,14.3632352 C133.428835,14.3632352 133.560655,14.3972811 133.678353,14.4649862 C133.79605,14.5330781 133.890207,14.635216 133.961218,14.771013 C134.031836,14.9071969 134.067538,15.073171 134.067538,15.2689353" id="Fill-84"></path>
                <path d="M141.411916,14.3141327 L141.592946,14.3141327 L141.592946,13.4132129 C141.592946,13.1711483 141.59955,12.9818913 141.613924,12.8443787 C141.627909,12.7072206 141.667145,12.5888464 141.731244,12.4899649 C141.795343,12.3875394 141.888189,12.3042521 142.008229,12.2401032 C142.129045,12.1759543 142.26307,12.1440571 142.411857,12.1440571 C142.620469,12.1440571 142.809269,12.2152943 142.977869,12.358123 C143.090139,12.4534603 143.161618,12.569708 143.19192,12.7072206 C143.221833,12.8443787 143.236983,13.0393063 143.236983,13.2923578 L143.236983,14.3141327 L143.839123,14.3141327 C144.07221,14.3141327 144.249744,14.3648139 144.372115,14.465113 C144.494873,14.566121 144.555864,14.6951276 144.555864,14.8528417 C144.555864,15.0541487 144.468457,15.1952054 144.294031,15.2756574 C144.119216,15.3564637 143.869425,15.3965125 143.54388,15.3965125 L143.236983,15.3965125 L143.236983,18.1545606 C143.236983,18.3891825 143.245918,18.5695792 143.264177,18.6961049 C143.281658,18.8222762 143.330218,18.9250562 143.40869,19.0037361 C143.486774,19.0824159 143.614195,19.1217559 143.790952,19.1217559 C143.887295,19.1217559 144.017823,19.1061617 144.182538,19.0749732 C144.347252,19.0441392 144.47545,19.0281906 144.567907,19.0281906 C144.700378,19.0281906 144.819641,19.0767453 144.926472,19.1738547 C145.032526,19.2709641 145.085748,19.3911103 145.085748,19.5339391 C145.085748,19.7756493 144.941234,19.9606533 144.652207,20.0885967 C144.36318,20.2168945 143.947509,20.2810434 143.405582,20.2810434 C142.891627,20.2810434 142.502372,20.2023635 142.23743,20.0446494 C141.9721,19.8872897 141.798451,19.6693252 141.716093,19.3911103 C141.633736,19.1125411 141.592946,18.740761 141.592946,18.2757701 L141.592946,15.3965125 L141.375787,15.3965125 C141.139204,15.3965125 140.958562,15.3454769 140.834249,15.2426969 C140.709548,15.1402713 140.647392,15.0102014 140.647392,14.8528417 C140.647392,14.6951276 140.712267,14.566121 140.843184,14.465113 C140.973324,14.3648139 141.162901,14.3141327 141.411916,14.3141327" id="Fill-86"></path>
                <path d="M150.693132,17.7339039 C150.467304,17.8219553 150.138759,17.914641 149.707863,18.0123471 C149.276603,18.1100533 148.97829,18.1818847 148.812925,18.2278413 C148.647196,18.2734118 148.488752,18.3633941 148.338321,18.4974021 C148.187889,18.631024 148.112492,18.8175539 148.112492,19.0569918 C148.112492,19.3045398 148.201002,19.5150135 148.378023,19.6887991 C148.555043,19.8621986 148.7867,19.9490914 149.072628,19.9490914 C149.377497,19.9490914 149.658691,19.8780324 149.916573,19.7366867 C150.174455,19.5949549 150.363859,19.4122869 150.484059,19.1886827 C150.623563,18.9411347 150.693132,18.5340902 150.693132,17.9671629 L150.693132,17.7339039 Z M150.794391,20.0989332 C150.422138,20.4059545 150.061904,20.6365101 149.713691,20.7902138 C149.365113,20.9439175 148.974648,21.0207694 148.541931,21.0207694 C148.146366,21.0207694 147.799245,20.9377385 147.49984,20.7724491 C147.200435,20.6063872 146.969871,20.3820107 146.808148,20.0989332 C146.646425,19.8154695 146.5652,19.5080621 146.5652,19.1767108 C146.5652,18.7298887 146.698876,18.3487189 146.966592,18.0332014 C147.23358,17.7176839 147.600734,17.5064379 148.067326,17.3986908 C148.165306,17.374747 148.408255,17.3206803 148.795806,17.236877 C149.183357,17.1530738 149.515909,17.0762219 149.792367,17.0063214 C150.069189,16.9368072 150.369323,16.8518453 150.693132,16.7522082 C150.674192,16.3208337 150.592602,16.0045439 150.44727,15.8029525 C150.302667,15.6017474 150.002533,15.5005655 149.546869,15.5005655 C149.155311,15.5005655 148.861005,15.5584941 148.663223,15.6743512 C148.465805,15.7902083 148.296069,15.9639939 148.154744,16.1953219 C148.014147,16.4266498 147.913981,16.579195 147.855702,16.6533435 C147.797424,16.7271059 147.672125,16.7637939 147.480171,16.7637939 C147.306793,16.7637939 147.15709,16.705093 147.031063,16.587305 C146.9054,16.4699031 146.842022,16.3189027 146.842022,16.1350762 C146.842022,15.8477506 146.937817,15.5689212 147.130136,15.2970433 C147.322091,15.0259377 147.621132,14.8023335 148.027988,14.6266169 C148.43448,14.4512865 148.940409,14.3632352 149.546869,14.3632352 C150.224356,14.3632352 150.757239,14.448197 151.14479,14.6177346 C151.532706,14.7872721 151.806614,15.0556743 151.966516,15.4229413 C152.126417,15.7902083 152.206186,16.2771942 152.206186,16.8838991 C152.206186,17.2669999 152.205457,17.5921721 152.203272,17.8594158 C152.201815,18.1270456 152.198901,18.4244122 152.195258,18.7515153 C152.195258,19.0589228 152.243338,19.3794607 152.339133,19.7127429 C152.434928,20.0460251 152.483008,20.2603607 152.483008,20.3561359 C152.483008,20.5237425 152.408703,20.6762877 152.260093,20.8141576 C152.111483,20.9520275 151.94284,21.0207694 151.754528,21.0207694 C151.596448,21.0207694 151.440189,20.9419866 151.286115,20.7840348 C151.131678,20.6264691 150.967769,20.3978445 150.794391,20.0989332 L150.794391,20.0989332 Z" id="Fill-88"></path>
                <path d="M155.441912,20.0489466 L155.441912,13.1162576 C155.441912,12.7959678 155.507635,12.5542396 155.639429,12.3903177 C155.771573,12.2263957 155.949513,12.1440571 156.173598,12.1440571 C156.397333,12.1440571 156.57807,12.2252626 156.715458,12.3869184 C156.852845,12.5493295 156.921364,12.7921908 156.921364,13.1162576 L156.921364,20.0489466 C156.921364,20.3730134 156.851796,20.6158747 156.71301,20.7779081 C156.573525,20.9395638 156.394187,21.0207694 156.173598,21.0207694 C155.956854,21.0207694 155.780662,20.9369199 155.645372,20.769221 C155.509383,20.6011444 155.441912,20.3613047 155.441912,20.0489466" id="Fill-90"></path>
                <path d="M55.5788985,43.7385825 L55.5788985,47.8517111 C55.5788985,48.3987613 55.5244606,48.8352297 55.4159551,49.1622148 C55.3070793,49.4891999 55.1074736,49.7843287 54.8160271,50.0476011 C54.524951,50.3112398 54.1524031,50.5653581 53.6987538,50.8092238 C52.3855781,51.511894 51.1223964,52.0241585 49.9080977,52.3460173 C48.6945397,52.6682423 47.3717355,52.8289886 45.9407961,52.8289886 C44.2728482,52.8289886 42.7526603,52.5752364 41.3809731,52.0677321 C40.0089155,51.5605939 38.8394263,50.8238704 37.872135,49.8575616 C36.9044733,48.8912529 36.1619698,47.720258 35.6438839,46.3438447 C35.1261682,44.9681637 34.8665698,43.4310041 34.8665698,41.7330982 C34.8665698,40.0644854 35.1183914,38.5372122 35.6216643,37.1512787 C36.1253076,35.7657113 36.8655891,34.5895901 37.8425089,33.6232813 C38.819799,32.6569725 40.0089155,31.9180521 41.4102288,31.4054214 C42.8115421,30.8931569 44.4009809,30.6372078 46.1774344,30.6372078 C47.6383701,30.6372078 48.9315483,30.8298104 50.0565984,31.2153819 C51.1816486,31.6009534 52.094502,32.0864878 52.7951586,32.6716191 C53.4961856,33.2574827 54.0242703,33.8770335 54.3797832,34.5310037 C54.7349258,35.184974 54.9123119,35.7657113 54.9123119,36.2728494 C54.9123119,36.8195334 54.7075217,37.2856611 54.2979412,37.6708664 C53.888731,38.0564379 53.3973085,38.2490406 52.8247847,38.2490406 C52.5088967,38.2490406 52.2055997,38.1761738 51.9141532,38.0293417 C51.6230771,37.883242 51.3790323,37.6781897 51.1816486,37.4145511 C50.6387508,36.5756677 50.1799169,35.9411042 49.8047768,35.5115929 C49.4296366,35.0824478 48.9237714,34.7214094 48.2875515,34.4284776 C47.6509612,34.1355458 46.8384662,33.9894461 45.8519179,33.9894461 C44.8353732,33.9894461 43.9273341,34.1630081 43.1278004,34.5090338 C42.3282668,34.8554257 41.6450154,35.3578037 41.0773058,36.0169003 C40.5099665,36.6756307 40.0755742,37.4830239 39.7744992,38.4394463 C39.4734242,39.3962347 39.3230719,40.4544509 39.3230719,41.6159255 C39.3230719,44.1336743 39.9078165,46.071052 41.0773058,47.4273262 C42.2471654,48.7839666 43.8777104,49.4624699 45.9704222,49.4624699 C46.9869668,49.4624699 47.9416671,49.3302844 48.8348932,49.067012 C49.7281193,48.8033733 50.6335662,48.4280545 51.5516042,47.9399569 L51.5516042,44.4558993 L48.1468276,44.4558993 C47.3272964,44.4558993 46.7081114,44.3339664 46.2885322,44.0897345 C45.8689529,43.8462349 45.6597187,43.4310041 45.6597187,42.8455067 C45.6597187,42.3676617 45.8345126,41.9725699 46.1852112,41.6598652 C46.5351692,41.3478929 47.0114084,41.1915405 47.6135583,41.1915405 L52.6029594,41.1915405 C53.2147379,41.1915405 53.7331942,41.2453667 54.1575877,41.3522868 C54.5816108,41.4599393 54.9245326,41.6990449 55.1863531,42.0696036 C55.4478032,42.4405285 55.5788985,42.9970989 55.5788985,43.7385825" id="Fill-92"></path>
                <path d="M68.3264777,34.6960581 L64.3391281,34.6960581 L64.3391281,40.6939374 L68.210359,40.6939374 C69.2477833,40.6939374 70.1214038,40.6027219 70.8294005,40.4188019 C71.5373971,40.2352541 72.0786778,39.9225155 72.4521505,39.4813307 C72.8252593,39.0397737 73.0123597,38.431795 73.0123597,37.657767 C73.0123597,37.0527667 72.8616602,36.5188773 72.5613531,36.0575879 C72.260682,35.5962985 71.8431643,35.2515414 71.3095277,35.0233167 C70.8053759,34.8051443 69.8109046,34.6960581 68.3264777,34.6960581 M65.8526757,43.8645109 L64.3391281,43.8645109 L64.3391281,50.8746951 C64.3391281,51.7976462 64.1403795,52.4774804 63.7425181,52.9141974 C63.3442928,53.3501699 62.8259446,53.5687146 62.1852896,53.5687146 C61.4962214,53.5687146 60.9629489,53.3404899 60.58438,52.8844128 C60.2061751,52.4279634 60.0172547,51.7581816 60.0172547,50.8746951 L60.0172547,34.0854733 C60.0172547,33.1331099 60.2254676,32.4435957 60.6429854,32.016931 C61.0597752,31.5902662 61.734283,31.3769338 62.6654169,31.3769338 L69.6944218,31.3769338 C70.6645046,31.3769338 71.493716,31.4190046 72.1831482,31.5031462 C72.8714884,31.58766 73.492487,31.7585493 74.0454159,32.016931 C74.7151917,32.3047249 75.3067055,32.7164974 75.8210496,33.2522484 C76.3350297,33.7879993 76.7252468,34.410498 76.9924291,35.1201168 C77.2592474,35.8297355 77.3924745,36.5810527 77.3924745,37.374813 C77.3924745,39.0025429 76.943652,40.3022695 76.0463709,41.2747376 C75.1487258,42.2472057 73.7884259,42.9370921 71.9643791,43.3436522 C72.7309811,43.7602647 73.4633663,44.3756896 74.1618987,45.1895545 C74.8604311,46.0026748 75.4836137,46.8686628 76.0318106,47.7864016 C76.5800074,48.7041404 77.0069894,49.53327 77.3127566,50.2719287 C77.6181598,51.0113321 77.7706794,51.5199046 77.7706794,51.7976462 C77.7706794,52.0854402 77.6811333,52.3710003 77.5016771,52.6532096 C77.3222208,52.9365359 77.0772431,53.1599206 76.7667438,53.3229914 C76.4562445,53.4871792 76.0976961,53.5687146 75.6900065,53.5687146 C75.2044191,53.5687146 74.7970936,53.4521823 74.4676658,53.2191176 C74.1375101,52.9860529 73.8539474,52.6904404 73.6162499,52.3333972 C73.3781883,51.976354 73.0560407,51.450283 72.6483511,50.7555566 L70.9167625,47.8087401 C70.2957639,46.7271858 69.7402869,45.9036409 69.2503314,45.3381053 C68.7603759,44.7721974 68.2631402,44.3849972 67.7589884,44.1772495 C67.2544726,43.9687571 66.6189136,43.8645109 65.8526757,43.8645109" id="Fill-94"></path>
                <path d="M86.6718814,44.0754541 L93.1041101,44.0754541 L89.8586081,35.2190273 L86.6718814,44.0754541 Z M95.3067168,50.0333207 L94.2788827,47.3394467 L85.5261292,47.3394467 L84.4979277,50.0919071 C84.0964185,51.165136 83.754052,51.8901422 83.4700936,52.265461 C83.1861351,52.6411461 82.7210751,52.8289886 82.0749134,52.8289886 C81.5264658,52.8289886 81.0419364,52.6290626 80.6209579,52.2292107 C80.2003467,51.8289927 79.9898574,51.3753145 79.9898574,50.867444 C79.9898574,50.5745122 80.0383471,50.2724263 80.1364285,49.9597216 C80.2345099,49.6477492 80.3957748,49.2134778 80.6209579,48.6572736 L86.1285767,34.7214094 C86.2846987,34.3211913 86.4731472,33.8407832 86.6939222,33.2794526 C86.9139625,32.718122 87.1490639,32.2523605 87.3988592,31.8814356 C87.6482871,31.5108769 87.9763271,31.2106218 88.3826118,30.9810365 C88.7888965,30.7518173 89.2906912,30.6372078 89.8879958,30.6372078 C90.4948514,30.6372078 91.0014215,30.7518173 91.4080736,30.9810365 C91.8139909,31.2106218 92.1420309,31.5061167 92.3918262,31.866789 C92.6412541,32.2281936 92.8517434,32.6159621 93.023294,33.0304606 C93.1944772,33.4456914 93.4126808,33.9989663 93.6768026,34.6921162 L99.3012374,48.5397347 C99.7420526,49.593923 99.9624602,50.3603058 99.9624602,50.8381508 C99.9624602,51.3361349 99.754175,51.79201 99.337972,52.2072408 C98.9221363,52.6217393 98.4199743,52.8289886 97.8329553,52.8289886 C97.4898574,52.8289886 97.1959774,52.7678391 96.9513249,52.6462724 C96.7066725,52.5236072 96.501326,52.3584669 96.3349183,52.1482883 C96.1685106,51.9388421 95.9896131,51.6166171 95.7989605,51.1823457 C95.6079405,50.7480743 95.4437369,50.365066 95.3067168,50.0333207 L95.3067168,50.0333207 Z" id="Fill-96"></path>
                <path d="M117.465958,34.7275934 L107.393321,34.7275934 L107.393321,39.9958963 L116.667906,39.9958963 C117.350337,39.9958963 117.8599,40.1445054 118.195843,40.4417236 C118.532539,40.7396739 118.700511,41.1320605 118.700511,41.6196155 C118.700511,42.1075366 118.534799,42.5050477 118.203752,42.8125148 C117.872329,43.1199819 117.360505,43.2737155 116.667906,43.2737155 L107.393321,43.2737155 L107.393321,49.3754739 L117.812446,49.3754739 C118.514461,49.3754739 119.043986,49.5343319 119.400643,49.8509498 C119.756923,50.1682998 119.935063,50.589969 119.935063,51.1166895 C119.935063,51.6240103 119.756923,52.0365287 119.400643,52.3531466 C119.043986,52.6704966 118.514461,52.8289886 117.812446,52.8289886 L105.661634,52.8289886 C104.687701,52.8289886 103.987945,52.6192521 103.561238,52.199413 C103.13453,51.7803061 102.921364,51.1020482 102.921364,50.1657376 L102.921364,34.0398188 C102.921364,33.4157337 103.016649,32.9054847 103.207594,32.5105358 C103.397786,32.115587 103.696443,31.8278856 104.103567,31.6474317 C104.509937,31.4669777 105.029293,31.3769338 105.661634,31.3769338 L117.465958,31.3769338 C118.178519,31.3769338 118.708043,31.5303013 119.054531,31.8374024 C119.400643,32.1448696 119.573887,32.5475051 119.573887,33.0445769 C119.573887,33.5522637 119.400643,33.9592916 119.054531,34.2663927 C118.708043,34.5738599 118.178519,34.7275934 117.465958,34.7275934" id="Fill-98"></path>
                <path d="M128.035978,33.31629 L128.035978,49.1971866 L136.959567,49.1971866 C137.670725,49.1971866 138.216886,49.3710514 138.597307,49.7184088 C138.977729,50.0657662 139.16794,50.5021037 139.16794,51.0277935 C139.16794,51.5639078 138.980324,51.9980114 138.605094,52.3301045 C138.229122,52.6629421 137.681107,52.8289886 136.959567,52.8289886 L126.331497,52.8289886 C125.372657,52.8289886 124.683374,52.6156598 124.26365,52.1886299 C123.843184,51.7623445 123.633693,51.0724697 123.633693,50.1201222 L123.633693,33.31629 C123.633693,32.4235108 123.833915,31.7533679 124.233988,31.3069783 C124.634061,30.8602164 125.160199,30.6372078 125.812774,30.6372078 C126.474618,30.6372078 127.010397,30.8579826 127.420852,31.2995323 C127.830565,31.741082 128.035978,32.4130863 128.035978,33.31629" id="Fill-100"></path>
                <path d="M145.789668,33.31629 L145.789668,49.1971866 L154.712674,49.1971866 C155.424186,49.1971866 155.970333,49.3710514 156.350375,49.7184088 C156.731158,50.0657662 156.921364,50.5021037 156.921364,51.0277935 C156.921364,51.5639078 156.733754,51.9980114 156.358161,52.3301045 C155.982569,52.6629421 155.434197,52.8289886 154.712674,52.8289886 L144.084857,52.8289886 C143.12604,52.8289886 142.437145,52.6156598 142.01706,52.1886299 C141.596975,51.7623445 141.387118,51.0724697 141.387118,50.1201222 L141.387118,33.31629 C141.387118,32.4235108 141.587335,31.7533679 141.987398,31.3069783 C142.387461,30.8602164 142.913958,30.6372078 143.566146,30.6372078 C144.227975,30.6372078 144.764112,30.8579826 145.174186,31.2995323 C145.58426,31.741082 145.789668,32.4130863 145.789668,33.31629" id="Fill-102"></path>
            </g>
        </g>
    </g>
</svg>