<?xml version="1.0" encoding="UTF-8"?>
<svg width="157px" height="53px" viewBox="0 0 157 53" version="1.1" xmlns="http://www.w3.org/2000/svg" xmlns:xlink="http://www.w3.org/1999/xlink">
    <title>Group</title>
    <g id="Page-1" stroke="none" stroke-width="1" fill="none" fill-rule="evenodd">
        <g id="Group" fill="#004F80" fill-rule="nonzero">
            <path d="M56.3,4.9 C55.9,4.3 55,3 53.4,2 C51.5,0.8 48,-0.3 42.7,1.5 C40,2.4 36.8,4.4 35.6,5.3 L35.6,5.3 C33.8,6.5 29.7,9.2 25.8,10.4 C22.8,11.4 19.4,11.5 15.8,10.9 C15.7,10.9 15.7,10.9 15.7,11 C15.7,11.1 15.7,11.1 15.8,11.1 C18.9,12.1 22.1,12.3 25.2,12 C27.9,11.7 29.9,10.9 31.7,10.2 C34,9.3 35.2,8.6 36.4,7.9 C37.3,7.4 38.2,6.8 39.5,6.2 C42.6,4.8 48.4,2.2 52.3,4.5 C54.5,5.8 55.3,8.3 55.9,10.5 C57.8,16.7 56.1,22.5 54.4,26.4 C54.4,26.5 54.4,26.5 54.5,26.6 C54.5,26.6 54.5,26.6 54.6,26.6 C54.6,26.6 54.7,26.6 54.7,26.5 C57,22.8 58.3,18.9 58.5,14.8 C58.5,12.3 58.7,8.4 56.3,4.9" id="Path"></path>
            <path d="M26.6,51.5 C25.9,51.6 25.2,51.6 24.5,51.6 C21.3,51.4 19.1,49.9 17.8,49 C16.4,48 15.1,46.9 13.7,45.2 C10.3,41.3 8.3,37.5 7.4,35.5 C5.9,32.3 3.6,27.4 3.4,20.7 C3.3,16.9 3.2,12.2 6.5,8.7 C6.8,8.4 9.7,5.4 14,5 C15.4,4.9 16.3,5.1 18,5.5 C19,5.7 20.3,6 22.2,6.4 C24.2,6.7 26.2,7 28.2,7.2 C28.3,7.2 28.3,7.2 28.3,7.1 C28.3,7 28.3,7 28.2,7 C25.8,6.3 23.4,5.6 21.1,4.8 C20.6,4.6 20.2,4.5 19.8,4.3 C18.2,3.7 17.3,3.4 15.8,3.2 C14.5,3 12.4,2.7 10.1,3.3 C6.6,4.3 4.6,6.9 4,7.7 C2.5,9.7 1.6,12 1.2,15.1 C0.3,22.1 2.1,30.1 6.3,37.6 C9.6,44.6 16.4,49.3 16.7,49.5 C16.9,49.6 20.6,52.2 23.5,52.2 C23.6,52.2 23.6,52.2 23.7,52.2 C24.6,52.2 25.6,52 25.7,52 C26.3,51.9 26.8,51.8 26.8,51.8 C26.9,51.8 26.9,51.7 26.9,51.7 C26.8,51.5 26.7,51.5 26.6,51.5" id="Path"></path>
            <path d="M54.7,12.4 C54.7,11.1 54.5,10.4 54.3,9.9 C54.2,9.6 54.1,9.1 53.8,8.5 C53.3,7.6 52.7,7 52.4,6.7 C51.2,5.6 49.8,5.4 49.2,5.3 C48.4,5.2 47.1,5.1 44.9,5.7 C42.4,6.5 40,7.9 37.9,9.8 C37.9,9.8 37.8,9.9 37.9,10 C37.9,10 38,10.1 38.1,10 C40,8.7 43.1,7.1 46.6,7 C48.2,7 49.6,7.2 50.6,7.8 C51.8,8.5 52.4,9.4 52.7,9.9 C54.2,12.2 54.3,14.7 54.1,16.5 C54.1,16.6 54.1,16.6 54.2,16.6 L54.2,16.6 C54.3,16.6 54.3,16.6 54.3,16.5 C54.6,15.2 54.7,13.7 54.7,12.4" id="Path"></path>
            <path d="M20.4,23.7 L21.1,26.8 C21.1,26.9 21.2,26.9 21.2,26.9 C21.2,26.9 21.3,26.9 21.3,26.8 L22,23.7 L25.1,23 C25.2,23 25.2,22.9 25.2,22.9 C25.2,22.8 25.2,22.8 25.1,22.8 L22,22.1 L21.3,19 C21.3,18.9 21.1,18.9 21.1,19 L20.4,22.1 L17.3,22.8 C17.2,22.8 17.2,22.9 17.2,22.9 C17.2,23 17.2,23 17.3,23 L20.4,23.7 Z" id="Path"></path>
            <path d="M13,12.1 C13,12 12.8,12 12.8,12.1 L12.4,14.2 L10.3,14.6 C10.2,14.6 10.2,14.7 10.2,14.7 C10.2,14.8 10.2,14.8 10.3,14.8 L12.4,15.2 L12.8,17.3 C12.8,17.4 12.9,17.4 12.9,17.4 C12.9,17.4 13,17.4 13,17.3 L13.4,15.2 L15.5,14.8 C15.6,14.8 15.6,14.7 15.6,14.7 C15.6,14.6 15.6,14.6 15.5,14.6 L13.4,14.2 L13,12.1 Z" id="Path"></path>
            <path d="M18.9,9.1 C18.9,9 18.9,9 18.9,8.9 C15.6,6.7 11.9,6.8 9.6,7.7 C7.8,8.4 6.4,9.9 5.5,12 C3.4,17 4.3,25 7.8,32.7 C10.9,39.7 15.4,45.5 19.7,48.2 C19.7,48.2 19.7,48.2 19.8,48.2 C19.8,48.2 19.9,48.2 19.9,48.1 C19.9,48 19.9,48 19.9,47.9 C16.1,45 12.1,39.3 9.4,32.8 C6.1,24.9 5.4,17 7.5,12.2 C8.4,10.2 9.7,9 11.3,8.4 C13.8,7.5 16.6,7.7 18.7,9 C18.8,9.1 18.9,9.1 18.9,9.1" id="Path"></path>
            <path d="M68.4,18.3 C68.4,18.5 68.3,18.7 68.2,18.9 C68.1,19.1 67.9,19.3 67.7,19.5 C67.5,19.7 67.2,19.9 66.8,20 C66.4,20.1 66,20.2 65.6,20.2 C64.6,20.2 63.9,19.9 63.4,19.4 C62.9,18.8 62.6,18.1 62.6,17.2 C62.6,16.6 62.7,16 63,15.5 C63.2,15 63.6,14.6 64.1,14.4 C64.6,14.1 65.1,14 65.8,14 C66.2,14 66.6,14.1 66.9,14.2 C67.2,14.3 67.5,14.5 67.7,14.7 C67.9,14.9 68.1,15.1 68.2,15.3 C68.3,15.5 68.4,15.7 68.4,15.9 C68.4,16.1 68.3,16.2 68.2,16.4 C68.1,16.5 67.9,16.6 67.7,16.6 C67.6,16.6 67.5,16.6 67.4,16.5 C67.3,16.4 67.2,16.3 67.1,16.2 C66.9,15.9 66.7,15.7 66.5,15.6 C66.3,15.5 66,15.4 65.7,15.4 C65.2,15.4 64.9,15.6 64.6,15.9 C64.3,16.3 64.2,16.7 64.2,17.4 C64.2,17.7 64.2,18 64.3,18.2 C64.4,18.4 64.5,18.7 64.6,18.8 C64.7,19 64.9,19.1 65.1,19.2 C65.3,19.3 65.5,19.3 65.7,19.3 C66,19.3 66.3,19.2 66.5,19.1 C66.7,19 66.9,18.7 67.1,18.4 C67.2,18.2 67.3,18.1 67.4,18 C67.5,17.9 67.6,17.9 67.8,17.9 C68,17.9 68.1,18 68.3,18.1 C68.3,18 68.4,18.1 68.4,18.3" id="Path"></path>
            <path d="M70.9,19.3 L70.9,12.6 C70.9,12.3 71,12.1 71.1,11.9 C71.2,11.7 71.4,11.7 71.7,11.7 C71.9,11.7 72.1,11.8 72.3,11.9 C72.4,12.1 72.5,12.3 72.5,12.6 L72.5,19.3 C72.5,19.6 72.4,19.8 72.3,20 C72.2,20.2 72,20.2 71.7,20.2 C71.5,20.2 71.3,20.1 71.1,20 C71,19.8 70.9,19.6 70.9,19.3" id="Path"></path>
            <path d="M76.9,11.7 L77.7,11.7 C77.9,11.7 78,11.7 78,11.8 C78,11.8 77.9,12 77.7,12.2 C77.5,12.4 77.3,12.6 77.1,12.8 C76.9,13 76.7,13.1 76.7,13.2 C76.5,13.3 76.3,13.4 76,13.4 C75.8,13.4 75.8,13.4 75.8,13.3 C75.8,13.2 75.8,13.1 75.9,13 L76.2,12.5 C76.3,12.2 76.5,12 76.6,12 C76.7,12 76.6,11.7 76.9,11.7 M77.1,14.8 L77.1,19.3 C77.1,19.6 77,19.8 76.9,20 C76.8,20.2 76.6,20.2 76.3,20.2 C76.1,20.2 75.9,20.1 75.7,20 C75.6,19.8 75.5,19.6 75.5,19.3 L75.5,14.9 C75.5,14.6 75.6,14.4 75.7,14.2 C75.8,14 76,14 76.3,14 C76.5,14 76.7,14.1 76.9,14.2 C77.1,14.3 77.1,14.5 77.1,14.8" id="Shape"></path>
            <path d="M81.6,14.8 L81.6,15 C81.9,14.6 82.2,14.4 82.5,14.2 C82.8,14 83.2,13.9 83.6,13.9 C84,13.9 84.4,14 84.7,14.2 C85,14.4 85.3,14.6 85.4,15 C85.5,15.2 85.6,15.4 85.6,15.6 C85.6,15.8 85.6,16.1 85.6,16.4 L85.6,19.3 C85.6,19.6 85.5,19.8 85.4,20 C85.3,20.2 85.1,20.2 84.8,20.2 C84.6,20.2 84.4,20.1 84.2,20 C84.1,19.8 84,19.6 84,19.3 L84,16.7 C84,16.2 83.9,15.8 83.8,15.5 C83.7,15.2 83.4,15.1 83,15.1 C82.7,15.1 82.5,15.2 82.2,15.3 C82,15.5 81.8,15.7 81.7,16 C81.6,16.2 81.6,16.7 81.6,17.3 L81.6,19.2 C81.6,19.5 81.5,19.7 81.4,19.9 C81.3,20.1 81.1,20.1 80.8,20.1 C80.6,20.1 80.4,20 80.3,19.9 C80.2,19.7 80.1,19.5 80.1,19.2 L80.1,14.7 C80.1,14.4 80.2,14.2 80.3,14 C80.4,13.9 80.6,13.8 80.8,13.8 C80.9,13.8 81.1,13.8 81.2,13.9 C81.3,14 81.4,14.1 81.5,14.2 C81.6,14.4 81.6,14.6 81.6,14.8" id="Path"></path>
            <path d="M89.5,13.2 C89.3,13.2 89.1,13.1 88.9,13 C88.7,12.9 88.7,12.7 88.7,12.4 C88.7,12.2 88.8,12 88.9,11.9 C89.1,11.8 89.2,11.7 89.4,11.7 C89.6,11.7 89.8,11.8 89.9,11.9 C90.1,12 90.1,12.2 90.1,12.5 C90.1,12.7 90,12.9 89.9,13.1 C89.9,13.1 89.7,13.2 89.5,13.2 M90.3,14.8 L90.3,19.3 C90.3,19.6 90.2,19.8 90.1,20 C90,20.2 89.8,20.2 89.5,20.2 C89.2,20.2 89.1,20.1 88.9,20 C88.8,19.8 88.7,19.6 88.7,19.3 L88.7,14.9 C88.7,14.6 88.8,14.4 88.9,14.2 C89,14 89.2,14 89.5,14 C89.8,14 89.9,14.1 90.1,14.2 C90.2,14.3 90.3,14.5 90.3,14.8" id="Shape"></path>
            <path d="M98.9,18.3 C98.9,18.5 98.8,18.7 98.7,18.9 C98.6,19.1 98.4,19.3 98.2,19.5 C98,19.7 97.7,19.9 97.3,20 C96.9,20.1 96.5,20.2 96.1,20.2 C95.1,20.2 94.4,19.9 93.9,19.4 C93.4,18.8 93.1,18.1 93.1,17.2 C93.1,16.6 93.2,16 93.5,15.5 C93.7,15 94.1,14.6 94.6,14.4 C95.1,14.1 95.6,14 96.3,14 C96.7,14 97.1,14.1 97.4,14.2 C97.7,14.3 98,14.5 98.2,14.7 C98.4,14.9 98.6,15.1 98.7,15.3 C98.8,15.5 98.9,15.7 98.9,15.9 C98.9,16.1 98.8,16.2 98.7,16.4 C98.6,16.5 98.4,16.6 98.2,16.6 C98.1,16.6 98,16.6 97.9,16.5 C97.8,16.4 97.7,16.3 97.6,16.2 C97.4,15.9 97.2,15.7 97,15.6 C96.8,15.5 96.5,15.4 96.2,15.4 C95.7,15.4 95.4,15.6 95.1,15.9 C94.8,16.3 94.7,16.7 94.7,17.4 C94.7,17.7 94.7,18 94.8,18.2 C94.9,18.4 95,18.7 95.1,18.8 C95.2,19 95.4,19.1 95.6,19.2 C95.8,19.3 96,19.3 96.2,19.3 C96.5,19.3 96.8,19.2 97,19.1 C97.2,19 97.4,18.7 97.6,18.4 C97.7,18.2 97.8,18.1 97.9,18 C98,17.9 98.1,17.9 98.3,17.9 C98.5,17.9 98.6,18 98.8,18.1 C98.9,18 98.9,18.1 98.9,18.3" id="Path"></path>
            <path d="M105.7,19.3 C105.3,19.6 105,19.8 104.6,20 C104.3,20.1 103.9,20.2 103.4,20.2 C103,20.2 102.7,20.1 102.4,20 C102.1,19.8 101.9,19.6 101.7,19.4 C101.5,19.1 101.5,18.8 101.5,18.5 C101.5,18.1 101.6,17.7 101.9,17.4 C102.2,17.1 102.5,16.9 103,16.8 C103.1,16.8 103.3,16.7 103.7,16.6 C104.1,16.5 104.4,16.4 104.7,16.4 C105,16.3 105.3,16.3 105.6,16.2 C105.6,15.8 105.5,15.5 105.4,15.3 C105.3,15.1 105,15 104.5,15 C104.1,15 103.8,15.1 103.6,15.2 C103.4,15.3 103.2,15.5 103.1,15.7 C103,15.9 102.9,16.1 102.8,16.1 C102.7,16.2 102.6,16.2 102.4,16.2 C102.2,16.2 102.1,16.1 101.9,16 C101.8,15.9 101.7,15.7 101.7,15.6 C101.7,15.3 101.8,15.1 102,14.8 C102.2,14.5 102.5,14.3 102.9,14.2 C103.3,14 103.8,14 104.4,14 C105.1,14 105.6,14.1 106,14.2 C106.4,14.4 106.7,14.6 106.8,15 C107,15.3 107,15.8 107,16.4 C107,16.8 107,17.1 107,17.3 C107,17.6 107,17.8 107,18.1 C107,18.4 107,18.7 107.1,19 C107.2,19.3 107.2,19.5 107.2,19.6 C107.2,19.8 107.1,19.9 107,20 C106.9,20.1 106.7,20.2 106.5,20.2 C106.3,20.2 106.2,20.1 106,20 C106,19.8 105.9,19.6 105.7,19.3 M105.6,17.1 C105.4,17.2 105,17.3 104.6,17.4 C104.2,17.5 103.9,17.6 103.7,17.6 C103.5,17.6 103.4,17.7 103.2,17.9 C103,18 103,18.2 103,18.4 C103,18.6 103.1,18.8 103.3,19 C103.5,19.2 103.7,19.2 104,19.2 C104.3,19.2 104.6,19.1 104.8,19 C105.1,18.9 105.2,18.7 105.4,18.5 C105.5,18.3 105.6,17.9 105.6,17.3 L105.6,17.1 L105.6,17.1 Z" id="Shape"></path>
            <path d="M118.8,19.3 L118.8,19.1 C118.6,19.3 118.4,19.5 118.2,19.7 C118,19.8 117.8,20 117.5,20 C117.3,20.1 117,20.1 116.7,20.1 C116.3,20.1 116,20 115.7,19.9 C115.4,19.7 115.1,19.5 114.9,19.2 C114.7,18.9 114.5,18.6 114.4,18.2 C114.3,17.8 114.2,17.4 114.2,16.9 C114.2,15.9 114.4,15.2 114.9,14.6 C115.4,14.1 116,13.8 116.8,13.8 C117.2,13.8 117.6,13.9 117.9,14 C118.2,14.2 118.5,14.4 118.8,14.7 L118.8,12.4 C118.8,12.1 118.9,11.8 119,11.7 C119.1,11.5 119.3,11.5 119.5,11.5 C119.7,11.5 119.9,11.6 120,11.7 C120.1,11.8 120.2,12.1 120.2,12.4 L120.2,19.2 C120.2,19.5 120.1,19.7 120,19.9 C119.9,20 119.7,20.1 119.5,20.1 C119.3,20.1 119.1,20 119,19.9 C118.9,19.8 118.8,19.6 118.8,19.3 M115.8,17 C115.8,17.4 115.9,17.8 116,18.1 C116.1,18.4 116.3,18.6 116.5,18.8 C116.7,18.9 117,19 117.2,19 C117.5,19 117.7,18.9 117.9,18.8 C118.1,18.7 118.3,18.4 118.4,18.1 C118.5,17.8 118.6,17.4 118.6,17 C118.6,16.6 118.5,16.2 118.4,15.9 C118.3,15.6 118.1,15.4 117.9,15.2 C117.7,15 117.4,15 117.1,15 C116.8,15 116.6,15.1 116.3,15.2 C116.1,15.4 115.9,15.6 115.8,15.9 C115.9,16.3 115.8,16.7 115.8,17" id="Shape"></path>
            <path d="M127.7,17.4 L124.7,17.4 C124.7,17.8 124.8,18.1 124.9,18.3 C125,18.6 125.2,18.8 125.4,18.9 C125.6,19 125.9,19.1 126.2,19.1 C126.4,19.1 126.6,19.1 126.7,19 C126.9,19 127,18.9 127.1,18.8 C127.2,18.7 127.4,18.6 127.5,18.5 C127.6,18.4 127.8,18.3 128,18.1 C128.1,18 128.2,18 128.3,18 C128.5,18 128.6,18 128.7,18.1 C128.8,18.2 128.8,18.3 128.8,18.5 C128.8,18.6 128.7,18.8 128.6,19 C128.5,19.2 128.3,19.4 128.1,19.5 C127.9,19.7 127.6,19.8 127.3,19.9 C127,20 126.6,20.1 126.1,20.1 C125.1,20.1 124.3,19.8 123.8,19.3 C123.2,18.7 123,18 123,17 C123,16.5 123.1,16.1 123.2,15.7 C123.3,15.3 123.5,15 123.8,14.7 C124.1,14.4 124.4,14.2 124.8,14.1 C125.2,14 125.6,13.9 126.1,13.9 C126.7,13.9 127.2,14 127.7,14.3 C128.1,14.6 128.5,14.9 128.7,15.3 C128.9,15.7 129,16.1 129,16.5 C129,16.9 128.9,17.1 128.7,17.3 C128.4,17.4 128.1,17.4 127.7,17.4 M124.6,16.6 L127.4,16.6 C127.4,16.1 127.2,15.7 127,15.4 C126.8,15.1 126.4,15 126,15 C125.6,15 125.3,15.1 125.1,15.4 C124.8,15.6 124.7,16 124.6,16.6" id="Shape"></path>
            <path d="M133.2,14.8 L133.2,15 C133.5,14.6 133.8,14.4 134.1,14.2 C134.4,14 134.8,13.9 135.2,13.9 C135.6,13.9 136,14 136.3,14.2 C136.6,14.4 136.9,14.6 137,15 C137.1,15.2 137.2,15.4 137.2,15.6 C137.2,15.8 137.2,16.1 137.2,16.4 L137.2,19.3 C137.2,19.6 137.1,19.8 137,20 C136.9,20.2 136.7,20.2 136.4,20.2 C136.2,20.2 136,20.1 135.8,20 C135.7,19.8 135.6,19.6 135.6,19.3 L135.6,16.7 C135.6,16.2 135.5,15.8 135.4,15.5 C135.3,15.2 135,15.1 134.6,15.1 C134.3,15.1 134.1,15.2 133.8,15.3 C133.6,15.5 133.4,15.7 133.3,16 C133.2,16.2 133.2,16.7 133.2,17.3 L133.2,19.2 C133.2,19.5 133.1,19.7 133,19.9 C132.9,20.1 132.7,20.1 132.4,20.1 C132.2,20.1 132,20 131.9,19.9 C131.8,19.7 131.7,19.5 131.7,19.2 L131.7,14.7 C131.7,14.4 131.8,14.2 131.9,14 C132,13.9 132.2,13.8 132.4,13.8 C132.5,13.8 132.7,13.8 132.8,13.9 C132.9,14 133,14.1 133.1,14.2 C133.1,14.4 133.2,14.6 133.2,14.8" id="Path"></path>
            <path d="M140.3,14.1 L140.5,14.1 L140.5,13.2 C140.5,13 140.5,12.8 140.5,12.6 C140.5,12.5 140.5,12.3 140.6,12.2 C140.7,12.1 140.7,12 140.9,11.9 C141.1,11.8 141.1,11.8 141.3,11.8 C141.5,11.8 141.7,11.9 141.8,12 C141.9,12.1 142,12.2 142,12.4 C142,12.5 142,12.7 142,13 L142,14.1 L142.6,14.1 C142.8,14.1 143,14.2 143.1,14.3 C143.2,14.4 143.3,14.5 143.3,14.7 C143.3,14.9 143.2,15.1 143.1,15.1 C142.9,15.2 142.7,15.2 142.4,15.2 L142.1,15.2 L142.1,18 C142.1,18.2 142.1,18.4 142.1,18.6 C142.1,18.7 142.2,18.8 142.2,18.9 C142.3,19 142.4,19 142.6,19 C142.7,19 142.8,19 143,19 C143.2,19 143.3,19 143.4,19 C143.5,19 143.6,19.1 143.7,19.2 C143.8,19.3 143.9,19.4 143.9,19.6 C143.9,19.8 143.8,20 143.5,20.2 C143.2,20.3 142.8,20.4 142.3,20.4 C141.8,20.4 141.5,20.3 141.2,20.2 C141,20 140.8,19.8 140.7,19.5 C140.6,19.2 140.6,18.8 140.6,18.4 L140.6,15.4 L140.4,15.4 C140.2,15.4 140,15.3 139.9,15.2 C139.8,15.1 139.7,15 139.7,14.8 C139.7,14.6 139.8,14.5 139.9,14.4 C139.9,14.1 140.1,14.1 140.3,14.1" id="Path"></path>
            <path d="M149.8,19.3 C149.4,19.6 149.1,19.8 148.7,20 C148.4,20.1 148,20.2 147.5,20.2 C147.1,20.2 146.8,20.1 146.5,20 C146.2,19.8 146,19.6 145.8,19.4 C145.6,19.1 145.6,18.8 145.6,18.5 C145.6,18.1 145.7,17.7 146,17.4 C146.3,17.1 146.6,16.9 147.1,16.8 C147.2,16.8 147.4,16.7 147.8,16.6 C148.2,16.5 148.5,16.4 148.8,16.4 C149.1,16.3 149.4,16.3 149.7,16.2 C149.7,15.8 149.6,15.5 149.5,15.3 C149.4,15.1 149.1,15 148.6,15 C148.2,15 147.9,15.1 147.7,15.2 C147.5,15.3 147.3,15.5 147.2,15.7 C147.1,15.9 147,16.1 146.9,16.1 C146.8,16.2 146.7,16.2 146.5,16.2 C146.3,16.2 146.2,16.1 146,16 C145.9,15.9 145.8,15.7 145.8,15.6 C145.8,15.3 145.9,15.1 146.1,14.8 C146.3,14.5 146.6,14.3 147,14.2 C147.4,14 147.9,14 148.5,14 C149.2,14 149.7,14.1 150.1,14.2 C150.5,14.4 150.8,14.6 150.9,15 C151.1,15.3 151.1,15.8 151.1,16.4 C151.1,16.8 151.1,17.1 151.1,17.3 C151.1,17.6 151.1,17.8 151.1,18.1 C151.1,18.4 151.1,18.7 151.2,19 C151.3,19.3 151.3,19.5 151.3,19.6 C151.3,19.8 151.2,19.9 151.1,20 C151,20.1 150.8,20.2 150.6,20.2 C150.4,20.2 150.3,20.1 150.1,20 C150.1,19.8 150,19.6 149.8,19.3 M149.7,17.1 C149.5,17.2 149.1,17.3 148.7,17.4 C148.3,17.5 148,17.6 147.8,17.6 C147.6,17.6 147.5,17.7 147.3,17.9 C147.1,18 147.1,18.2 147.1,18.4 C147.1,18.6 147.2,18.8 147.4,19 C147.6,19.2 147.8,19.2 148.1,19.2 C148.4,19.2 148.7,19.1 148.9,19 C149.2,18.9 149.3,18.7 149.5,18.5 C149.6,18.3 149.7,17.9 149.7,17.3 L149.7,17.1 L149.7,17.1 Z" id="Shape"></path>
            <path d="M154.3,19.3 L154.3,12.6 C154.3,12.3 154.4,12.1 154.5,11.9 C154.6,11.7 154.8,11.7 155.1,11.7 C155.3,11.7 155.5,11.8 155.7,11.9 C155.8,12.1 155.9,12.3 155.9,12.6 L155.9,19.3 C155.9,19.6 155.8,19.8 155.7,20 C155.6,20.2 155.4,20.2 155.1,20.2 C154.9,20.2 154.7,20.1 154.5,20 C154.3,19.8 154.3,19.6 154.3,19.3" id="Path"></path>
            <path d="M55.8,43.3 L55.8,47.4 C55.8,47.9 55.7,48.4 55.6,48.7 C55.5,49 55.3,49.3 55,49.6 C54.7,49.9 54.3,50.1 53.9,50.4 C52.6,51.1 51.4,51.6 50.2,51.9 C49,52.2 47.7,52.4 46.3,52.4 C44.7,52.4 43.2,52.1 41.8,51.6 C40.4,51.1 39.3,50.4 38.3,49.4 C37.3,48.4 36.6,47.3 36.1,45.9 C35.6,44.5 35.3,43 35.3,41.3 C35.3,39.6 35.5,38.1 36,36.7 C36.5,35.3 37.2,34.1 38.2,33.2 C39.2,32.2 40.3,31.5 41.7,31 C43.1,30.5 44.6,30.2 46.4,30.2 C47.8,30.2 49.1,30.4 50.2,30.8 C51.3,31.2 52.2,31.7 52.9,32.3 C53.6,32.9 54.1,33.5 54.5,34.2 C54.9,34.9 55,35.4 55,35.9 C55,36.4 54.8,36.9 54.4,37.3 C54,37.7 53.5,37.9 52.9,37.9 C52.6,37.9 52.3,37.8 52,37.7 C51.7,37.6 51.5,37.3 51.3,37.1 C50.8,36.3 50.3,35.6 49.9,35.2 C49.5,34.8 49,34.4 48.4,34.1 C47.8,33.8 47,33.7 46,33.7 C45,33.7 44.1,33.9 43.3,34.2 C42.5,34.5 41.8,35 41.3,35.7 C40.7,36.4 40.3,37.2 40,38.1 C39.7,39.1 39.6,40.1 39.6,41.3 C39.6,43.8 40.2,45.7 41.3,47.1 C42.5,48.5 44.1,49.1 46.1,49.1 C47.1,49.1 48,49 48.9,48.7 C49.8,48.4 50.7,48.1 51.6,47.6 L51.6,44 L48.2,44 C47.4,44 46.8,43.9 46.4,43.6 C46,43.4 45.8,42.9 45.8,42.4 C45.8,41.9 46,41.5 46.3,41.2 C46.6,40.9 47.1,40.7 47.7,40.7 L52.6,40.7 C53.2,40.7 53.7,40.8 54.1,40.9 C54.5,41 54.9,41.2 55.1,41.6 C55.7,42 55.8,42.5 55.8,43.3" id="Path"></path>
            <path d="M65.8,42.8 L64.3,42.8 L64.3,49.7 C64.3,50.6 64.1,51.3 63.7,51.7 C63.3,52.1 62.8,52.3 62.1,52.3 C61.4,52.3 60.9,52.1 60.5,51.6 C60.1,51.2 59.9,50.5 59.9,49.6 L59.9,33.1 C59.9,32.2 60.1,31.5 60.5,31.1 C60.9,30.7 61.6,30.5 62.5,30.5 L69.6,30.5 C70.6,30.5 71.4,30.5 72.1,30.6 C72.8,30.7 73.4,30.9 74,31.1 C74.7,31.4 75.3,31.8 75.8,32.3 C76.3,32.8 76.7,33.4 77,34.1 C77.3,34.8 77.4,35.5 77.4,36.3 C77.4,37.9 76.9,39.2 76,40.1 C75.1,41.1 73.7,41.7 71.9,42.1 C72.7,42.5 73.4,43.1 74.1,43.9 C74.8,44.7 75.4,45.5 76,46.4 C76.6,47.3 77,48.1 77.3,48.8 C77.6,49.5 77.8,50 77.8,50.3 C77.8,50.6 77.7,50.9 77.5,51.1 C77.3,51.4 77.1,51.6 76.8,51.8 C76.5,52 76.1,52 75.7,52 C75.2,52 74.8,51.9 74.5,51.7 C74.2,51.5 73.9,51.2 73.6,50.8 C73.4,50.4 73,49.9 72.6,49.3 L70.9,46.4 C70.3,45.3 69.7,44.5 69.2,44 C68.7,43.4 68.2,43.1 67.7,42.9 C67.2,42.9 66.6,42.8 65.8,42.8 M68.3,33.8 L64.3,33.8 L64.3,39.7 L68.2,39.7 C69.2,39.7 70.1,39.6 70.8,39.4 C71.5,39.2 72.1,38.9 72.4,38.5 C72.8,38.1 73,37.5 73,36.7 C73,36.1 72.8,35.6 72.5,35.1 C72.2,34.6 71.8,34.3 71.2,34.1 C70.8,33.9 69.8,33.8 68.3,33.8" id="Shape"></path>
            <path d="M95.2,49.6 L94.2,46.9 L85.5,46.9 L84.5,49.6 C84.1,50.7 83.8,51.4 83.5,51.8 C83.2,52.2 82.8,52.4 82.1,52.4 C81.6,52.4 81.1,52.2 80.7,51.8 C80.3,51.4 80.1,50.9 80.1,50.4 C80.1,50.1 80.1,49.8 80.2,49.5 C80.3,49.2 80.5,48.8 80.7,48.2 L86.2,34.3 C86.4,33.9 86.5,33.4 86.8,32.9 C87,32.3 87.3,31.9 87.5,31.5 C87.7,31.1 88.1,30.8 88.5,30.6 C88.9,30.4 89.4,30.3 90,30.3 C90.6,30.3 91.1,30.4 91.5,30.6 C91.9,30.8 92.2,31.1 92.5,31.5 C92.7,31.9 93,32.2 93.1,32.7 C93.3,33.1 93.5,33.7 93.7,34.4 L99.3,48.2 C99.7,49.3 100,50 100,50.5 C100,51 99.8,51.5 99.4,51.9 C99,52.3 98.5,52.5 97.9,52.5 C97.6,52.5 97.3,52.4 97,52.3 C96.8,52.2 96.6,52 96.4,51.8 C96.2,51.6 96.1,51.3 95.9,50.8 C95.5,50.3 95.3,49.9 95.2,49.6 M86.6,43.6 L93,43.6 L89.8,34.8 L86.6,43.6 Z" id="Shape"></path>
            <path d="M117.1,33.9 L107.3,33.9 L107.3,39.2 L116.3,39.2 C117,39.2 117.5,39.3 117.8,39.6 C118.1,39.9 118.3,40.3 118.3,40.8 C118.3,41.3 118.1,41.7 117.8,42 C117.5,42.3 117,42.5 116.3,42.5 L107.3,42.5 L107.3,48.6 L117.4,48.6 C118.1,48.6 118.6,48.8 118.9,49.1 C119.2,49.4 119.4,49.8 119.4,50.4 C119.4,50.9 119.2,51.3 118.9,51.6 C118.6,51.9 118,52.1 117.4,52.1 L105.6,52.1 C104.7,52.1 104,51.9 103.6,51.5 C103.2,51.1 103,50.4 103,49.5 L103,33.4 C103,32.8 103.1,32.3 103.3,31.9 C103.5,31.5 103.8,31.2 104.2,31 C104.6,30.8 105.1,30.7 105.7,30.7 L117.1,30.7 C117.8,30.7 118.3,30.9 118.6,31.2 C118.9,31.5 119.1,31.9 119.1,32.4 C119.1,32.9 118.9,33.3 118.6,33.6 C118.3,33.8 117.8,33.9 117.1,33.9" id="Path"></path>
            <path d="M127.2,32.8 L127.2,48.4 L136,48.4 C136.7,48.4 137.2,48.6 137.6,48.9 C138,49.2 138.2,49.7 138.2,50.2 C138.2,50.7 138,51.2 137.6,51.5 C137.2,51.8 136.7,52 136,52 L125.5,52 C124.6,52 123.9,51.8 123.5,51.4 C123.1,51 122.9,50.3 122.9,49.4 L122.9,32.9 C122.9,32 123.1,31.4 123.5,30.9 C123.9,30.5 124.4,30.2 125.1,30.2 C125.8,30.2 126.3,30.4 126.7,30.8 C127,31.3 127.2,32 127.2,32.8" id="Path"></path>
            <path d="M145.2,32.8 L145.2,48.4 L154,48.4 C154.7,48.4 155.2,48.6 155.6,48.9 C156,49.2 156.2,49.7 156.2,50.2 C156.2,50.7 156,51.2 155.6,51.5 C155.2,51.8 154.7,52 154,52 L143.5,52 C142.6,52 141.9,51.8 141.5,51.4 C141.1,51 140.9,50.3 140.9,49.4 L140.9,32.9 C140.9,32 141.1,31.4 141.5,30.9 C141.9,30.5 142.4,30.2 143.1,30.2 C143.8,30.2 144.3,30.4 144.7,30.8 C145,31.3 145.2,32 145.2,32.8" id="Path"></path>
        </g>
    </g>
</svg>