<?xml version="1.0" encoding="UTF-8"?>
<svg width="96px" height="96px" viewBox="0 0 96 96" version="1.1" xmlns="http://www.w3.org/2000/svg" xmlns:xlink="http://www.w3.org/1999/xlink">
    <title>favicon</title>
    <g id="Page-1" stroke="none" stroke-width="1" fill="none" fill-rule="evenodd">
        <g id="favicon">
            <rect id="Rectangle" fill-opacity="0" fill="#FFFFFF" x="0" y="0" width="96" height="96"></rect>
            <g id="Group-3" transform="translate(0.000000, 5.000000)" fill="#0052A3" fill-rule="nonzero">
                <path d="M92.3324177,7.23879053 C91.6668194,6.24019012 90.1692233,4.0765559 87.5068303,2.41222188 C84.3452385,0.415021063 78.5212537,-1.41574636 69.7020766,1.58005488 C65.2092883,3.07795549 59.8845022,6.40662353 57.8877074,7.90452414 L57.8877074,7.90452414 C54.8925152,9.90172496 48.0701329,14.3954268 41.5805498,16.3926276 C36.5885628,18.0569616 30.9309775,18.223395 24.9405931,17.2247946 C24.7741935,17.2247946 24.7741935,17.2247946 24.7741935,17.391228 C24.7741935,17.5576614 24.7741935,17.5576614 24.9405931,17.5576614 C30.0989797,19.2219955 35.4237658,19.5548623 40.5821524,19.0555621 C45.0749407,18.5562619 48.402932,17.2247946 51.3981243,16.0597608 C55.2253143,14.5618602 57.2221091,13.3968264 59.2189039,12.2317926 C60.7165,11.3996256 62.2140961,10.4010252 64.3772905,9.40242476 C69.535677,7.07235713 79.1868519,2.74508869 85.676435,6.57305693 C89.3372255,8.73669115 90.668422,12.8975262 91.6668194,16.559061 C94.8284112,26.8779319 91.9996186,36.5310692 89.1708259,43.0219719 C89.1708259,43.1884053 89.1708259,43.1884053 89.3372255,43.3548387 C89.3372255,43.3548387 89.3372255,43.3548387 89.5036251,43.3548387 C89.5036251,43.3548387 89.6700246,43.3548387 89.6700246,43.1884053 C93.4972147,37.0303694 95.660409,30.5394668 95.9932082,23.7156973 C95.9932082,19.5548623 96.3260073,13.0639596 92.3324177,7.23879053" id="Path"></path>
                <path d="M42.5937767,85.5360488 C41.4303033,85.7037101 40.26683,85.7037101 39.1033566,85.7037101 C33.7846212,85.3683876 30.1279907,82.8534692 27.9672544,81.3445182 C25.6403077,79.6679059 23.4795715,77.8236324 21.1526247,74.9733916 C15.5014684,68.4346038 12.1772588,62.0634772 10.6813645,58.7102527 C8.18820729,53.3450935 4.36536625,45.1296934 4.03294529,33.8963913 C3.86673481,27.5252647 3.70052433,19.6451871 9.18547017,13.7770442 C9.68410161,13.2740605 14.5042055,8.2442237 21.6512562,7.57357879 C23.9782029,7.40591757 25.4740972,7.74124002 28.2996754,8.41188492 C29.9617802,8.74720737 32.1225164,9.25019105 35.2805156,9.92083596 C38.6047252,10.4238196 41.9289348,10.9268033 45.2531444,11.2621258 C45.4193548,11.2621258 45.4193548,11.2621258 45.4193548,11.0944645 C45.4193548,10.9268033 45.4193548,10.9268033 45.2531444,10.9268033 C41.2640928,9.75317473 37.2750413,8.57954615 33.4522003,7.23825634 C32.6211479,6.90293389 31.9563059,6.73527266 31.291464,6.39995021 C28.6320963,5.39398286 27.136202,4.89099918 24.6430448,4.55567673 C22.4823086,4.22035428 18.9918885,3.7173706 15.1690475,4.72333795 C9.35168065,6.39995021 6.02747105,10.7591421 5.03020817,12.1004319 C2.53705097,15.4536564 1.04115665,19.3098646 0.376314728,24.5073626 C-1.11957959,36.2436484 1.87220905,49.6565465 8.85304921,62.2311384 C14.3379951,73.9674243 25.6403077,81.8475019 26.1389391,82.1828243 C26.4713601,82.3504855 32.6211479,86.7096774 37.4412518,86.7096774 C37.6074623,86.7096774 37.6074623,86.7096774 37.7736728,86.7096774 C39.2695671,86.7096774 40.9316719,86.374355 41.0978824,86.374355 C42.0951452,86.2066937 42.9261976,86.0390325 42.9261976,86.0390325 C43.0924081,86.0390325 43.0924081,85.8713713 43.0924081,85.8713713 C42.9261976,85.5360488 42.7599872,85.5360488 42.5937767,85.5360488" id="Path"></path>
                <path d="M89.8064516,19.9785213 C89.8064516,17.8551297 89.4755298,16.711765 89.1446081,15.8950759 C88.9791472,15.4050625 88.8136863,14.5883734 88.3173036,13.6083465 C87.4899991,12.1383061 86.4972338,11.1582792 86.0008511,10.6682657 C84.0153205,8.87154975 81.698868,8.54487412 80.7061026,8.3815363 C79.3824155,8.21819848 77.231424,8.05486067 73.5912844,9.03488757 C69.4547621,10.3415901 65.4837007,12.6283196 62.009022,15.7317381 C62.009022,15.7317381 61.8435612,15.8950759 62.009022,16.0584137 C62.009022,16.0584137 62.1744829,16.2217515 62.3399438,16.0584137 C65.4837007,13.9350221 70.6129883,11.321617 76.4041195,11.1582792 C79.0514937,11.1582792 81.3679462,11.4849548 83.0225551,12.4649817 C85.0080858,13.6083465 86.0008511,15.0783868 86.4972338,15.8950759 C88.9791472,19.6518457 89.1446081,23.7352911 88.8136863,26.6753719 C88.8136863,26.8387097 88.8136863,26.8387097 88.9791472,26.8387097 L88.9791472,26.8387097 C89.1446081,26.8387097 89.1446081,26.8387097 89.1446081,26.6753719 C89.6409907,24.5519802 89.8064516,22.101913 89.8064516,19.9785213" id="Path"></path>
                <path d="M32.2064516,39.0025281 L33.3806452,44.218829 C33.3806452,44.3870968 33.5483871,44.3870968 33.5483871,44.3870968 C33.5483871,44.3870968 33.716129,44.3870968 33.716129,44.218829 L34.8903226,39.0025281 L40.0903226,37.8246537 C40.2580645,37.8246537 40.2580645,37.6563859 40.2580645,37.6563859 C40.2580645,37.4881181 40.2580645,37.4881181 40.0903226,37.4881181 L34.8903226,36.3102437 L33.716129,31.0939428 C33.716129,30.925675 33.3806452,30.925675 33.3806452,31.0939428 L32.2064516,36.3102437 L27.0064516,37.4881181 C26.8387097,37.4881181 26.8387097,37.6563859 26.8387097,37.6563859 C26.8387097,37.8246537 26.8387097,37.8246537 27.0064516,37.8246537 L32.2064516,39.0025281 Z" id="Path"></path>
                <path d="M19.2688172,18.7102776 C19.2688172,18.5374344 18.9247312,18.5374344 18.9247312,18.7102776 L18.2365591,22.339985 L14.6236559,23.0313578 C14.4516129,23.0313578 14.4516129,23.2042011 14.4516129,23.2042011 C14.4516129,23.3770443 14.4516129,23.3770443 14.6236559,23.3770443 L18.2365591,24.0684171 L18.9247312,27.6981245 C18.9247312,27.8709677 19.0967742,27.8709677 19.0967742,27.8709677 C19.0967742,27.8709677 19.2688172,27.8709677 19.2688172,27.6981245 L19.9569892,24.0684171 L23.5698925,23.3770443 C23.7419355,23.3770443 23.7419355,23.2042011 23.7419355,23.2042011 C23.7419355,23.0313578 23.7419355,23.0313578 23.5698925,23.0313578 L19.9569892,22.339985 L19.2688172,18.7102776 Z" id="Path"></path>
                <path d="M29.3049851,13.6884357 C29.3049851,13.520161 29.3049851,13.520161 29.3049851,13.3518862 C23.8178875,9.64984124 17.6656872,9.81811601 13.8413464,11.3325889 C10.8483841,12.5105123 8.52052453,15.0346339 7.02404337,18.5684041 C3.53225399,26.9821426 5.02873515,40.4441242 10.8483841,53.4012816 C16.0029303,65.1805155 23.4853361,74.9404522 30.6351906,79.483871 C30.6351906,79.483871 30.6351906,79.483871 30.8014663,79.483871 C30.8014663,79.483871 30.9677419,79.483871 30.9677419,79.3155962 C30.9677419,79.1473214 30.9677419,79.1473214 30.9677419,78.9790467 C24.6492659,74.0990783 17.9982385,64.5074164 13.5087951,53.5695563 C8.02169748,40.2758495 6.85776768,26.9821426 10.3495571,18.9049536 C11.8460382,15.5394582 14.0076221,13.520161 16.6680331,12.5105123 C20.8249252,10.9960394 25.4806443,11.3325889 28.9724337,13.520161 C29.1387094,13.6884357 29.3049851,13.6884357 29.3049851,13.6884357" id="Path"></path>
            </g>
        </g>
    </g>
</svg>